<?xml version="1.0" encoding="UTF-8" standalone="no"?>
<!-- Created with Inkscape (http://www.inkscape.org/) -->
<svg
   xmlns:dc="http://purl.org/dc/elements/1.1/"
   xmlns:cc="http://creativecommons.org/ns#"
   xmlns:rdf="http://www.w3.org/1999/02/22-rdf-syntax-ns#"
   xmlns:svg="http://www.w3.org/2000/svg"
   xmlns="http://www.w3.org/2000/svg"
   xmlns:xlink="http://www.w3.org/1999/xlink"
   xmlns:sodipodi="http://sodipodi.sourceforge.net/DTD/sodipodi-0.dtd"
   xmlns:inkscape="http://www.inkscape.org/namespaces/inkscape"
   version="1.0"
   width="744.09448"
   height="1052.3622"
   id="svg2"
   sodipodi:version="0.32"
   inkscape:version="0.46+devel, revision 19938"
   sodipodi:docname="climbers2.svg"
   inkscape:output_extension="org.inkscape.output.svg.inkscape"
   inkscape:export-filename="D:\MicroStock\NEW_PHOTO\Climberbis28ago08marco.png"
   inkscape:export-xdpi="598"
   inkscape:export-ydpi="598">
  <metadata
     id="metadata37">
    <rdf:RDF>
      <cc:Work
         rdf:about="">
        <dc:format>image/svg+xml</dc:format>
        <dc:type
           rdf:resource="http://purl.org/dc/dcmitype/StillImage" />
        <dc:title></dc:title>
      </cc:Work>
    </rdf:RDF>
  </metadata>
  <sodipodi:namedview
     inkscape:window-height="750"
     inkscape:window-width="1280"
     inkscape:pageshadow="2"
     inkscape:pageopacity="0.0"
     guidetolerance="10.0"
     gridtolerance="10.0"
     objecttolerance="10.0"
     borderopacity="1.0"
     bordercolor="#666666"
     pagecolor="#ffffff"
     id="base"
     showgrid="false"
     showguides="true"
     inkscape:guide-bbox="true"
     inkscape:zoom="0.38501211"
     inkscape:cx="335.31558"
     inkscape:cy="634.96123"
     inkscape:window-x="-8"
     inkscape:window-y="-8"
     inkscape:current-layer="svg2" />
  <defs
     id="defs4">
    <linearGradient
       id="linearGradient3291">
      <stop
         id="stop3293"
         offset="0"
         style="stop-color:#ffffff;stop-opacity:1" />
      <stop
         style="stop-color:#ffffff;stop-opacity:1;"
         offset="0.12123384"
         id="stop3552" />
      <stop
         id="stop3297"
         offset="0.4449898"
         style="stop-color:#ffc800;stop-opacity:1" />
      <stop
         id="stop3299"
         offset="1"
         style="stop-color:#f01600;stop-opacity:1;" />
    </linearGradient>
    <linearGradient
       id="linearGradient5933">
      <stop
         style="stop-color:#ff1100;stop-opacity:1;"
         offset="0"
         id="stop5935" />
      <stop
         id="stop3318"
         offset="0.25"
         style="stop-color:#ef310c;stop-opacity:1;" />
      <stop
         id="stop3314"
         offset="0.5"
         style="stop-color:#580e09;stop-opacity:1;" />
      <stop
         style="stop-color:#300704;stop-opacity:1;"
         offset="0.75"
         id="stop3316" />
      <stop
         style="stop-color:#000000;stop-opacity:1"
         offset="1"
         id="stop5937" />
    </linearGradient>
    <radialGradient
       inkscape:collect="always"
       xlink:href="#linearGradient3291"
       id="radialGradient2435"
       gradientUnits="userSpaceOnUse"
       gradientTransform="matrix(1.0615729,-0.08556385,0.01217458,1.1555595,-866.04332,245.76463)"
       cx="423.92358"
       cy="147.87659"
       fx="423.92358"
       fy="147.87659"
       r="526.84064" />
    <radialGradient
       inkscape:collect="always"
       xlink:href="#linearGradient5933"
       id="radialGradient3542"
       cx="336.68295"
       cy="464.84818"
       fx="336.68295"
       fy="464.84818"
       r="168.5433"
       gradientTransform="matrix(3.2974398,-0.81828209,0.63869991,2.5737756,-1120.3175,-526.14616)"
       gradientUnits="userSpaceOnUse" />
    <radialGradient
       inkscape:collect="always"
       xlink:href="#linearGradient5933"
       id="radialGradient3550"
       cx="348.71646"
       cy="447.32092"
       fx="348.71646"
       fy="447.32092"
       r="131.77505"
       gradientTransform="matrix(4.1339481,0.0194398,-0.02139479,4.5496779,-1083.2017,-1637.6982)"
       gradientUnits="userSpaceOnUse" />
  </defs>
  <rect
     id="rect4129"
     style="fill:url(#radialGradient2435);fill-opacity:1.0;fill-rule:nonzero;stroke:none"
     y="0.091521226"
     x="-744.53851"
     height="1054.0148"
     width="744.53058"
     transform="scale(-1,1)" />
  <path
     id="path2430"
     style="fill:#ffffff;fill-opacity:1;fill-rule:evenodd;stroke:none"
     d="m 300.48331,376.89396 c 0,58.33666 47.35367,105.62784 105.76736,105.62784 58.41373,0 105.76739,-47.29118 105.76739,-105.62784 0,-58.33665 -47.35366,-105.62785 -105.76739,-105.62785 -58.41369,0 -105.76736,47.2912 -105.76736,105.62785 l 0,0 z" />
  <path
     style="fill:url(#radialGradient3542);fill-opacity:1"
     d="m 744.53565,0.40625 0.84015,527.21875 0.84012,527.2188 -106.41856,0.1874 c -102.9637,0.1671 -106.41574,0.089 -106.41862,-1.6874 -0.003,-1.9965 3.89986,-10.599 5.94328,-13.125 0.69756,-0.8625 1.24656,-2.5269 1.24464,-3.7188 -0.003,-1.192 0.40286,-2.9582 0.87127,-3.9062 1.32207,-2.676 -0.24355,-28.3735 -1.68027,-47.25005 -0.12969,-0.0538 -0.28546,-0.10519 -0.37361,-0.15625 -0.42731,-0.2482 -2.75671,-1.10808 -2.95609,-1.09375 -0.0576,0.004 -0.44507,-0.12212 -0.87128,-0.28125 -0.426,-0.15914 -1.17174,-0.29729 -1.64915,-0.3125 -0.798,-0.0251 -0.87962,-0.0113 -0.96464,0.34375 -0.14492,0.60613 -0.9488,1.36008 -1.64917,1.53125 -0.66317,0.16214 -2.62842,-0.0498 -2.64492,-0.28125 -0.004,-0.072 -0.20645,-0.0813 -0.46676,-0.0625 -0.70157,0.0503 -1.29277,-0.28501 -2.17815,-1.1875 -1.17642,-1.19908 -1.52503,-1.88313 -1.83589,-3.75 -0.1497,-0.89909 -0.45567,-2.18394 -0.68455,-2.84375 -0.22872,-0.65971 -0.41509,-1.40984 -0.4356,-1.6875 -0.0218,-0.27755 -0.17546,-0.73914 -0.34219,-1 -1.30767,-2.04628 -1.46706,-2.77973 -1.77369,-7.8125 l -0.21779,-3.3125 -0.529,-0.9375 c -0.30073,-0.52425 -0.97835,-1.50773 -1.49355,-2.1875 -0.51531,-0.67985 -0.95963,-1.30504 -0.96466,-1.375 -0.004,-0.0699 -0.23961,-0.24613 -0.56007,-0.40625 -0.32256,-0.16119 -0.98856,-0.79066 -1.4936,-1.4375 -0.50185,-0.64273 -1.04949,-1.32611 -1.21356,-1.46875 -0.37842,-0.32941 -0.95281,-1.05894 -1.43136,-1.84375 -0.38976,-0.63918 -1.44619,-1.49463 -1.80476,-1.46875 -0.11474,0.008 -0.21255,-0.0537 -0.21779,-0.125 -0.004,-0.0713 -0.40462,-0.47336 -0.87128,-0.90625 -1.19061,-1.10388 -2.15521,-2.804 -2.39596,-4.25 -0.18332,-1.10038 -0.96914,-3.61804 -1.33805,-4.1875 -0.0977,-0.15101 -0.21212,-0.32704 -0.21779,-0.40625 -0.004,-0.0792 -0.33914,-0.64846 -0.74681,-1.28125 -0.40765,-0.63282 -0.7388,-1.26287 -0.74679,-1.375 -0.009,-0.11218 -0.15408,-0.29335 -0.3112,-0.40625 -0.15713,-0.11289 -0.53922,-0.63126 -0.84016,-1.15625 -0.30073,-0.52499 -0.68316,-1.17805 -0.87125,-1.4375 -0.18811,-0.25943 -0.47386,-0.91923 -0.62236,-1.5 -0.27454,-1.07404 -0.924,-3.02151 -1.24463,-3.6875 -0.0973,-0.20203 -0.18987,-0.70207 -0.21779,-1.09375 -0.0262,-0.39175 -0.20558,-1.02015 -0.37319,-1.40625 -0.1676,-0.38606 -0.3841,-1.02685 -0.49788,-1.40625 -0.11396,-0.37938 -0.49373,-1.17861 -0.84016,-1.8125 -1.40347,-2.56768 -2.58081,-5.87401 -2.98721,-8.28125 -0.41245,-2.44356 -1.44977,-6.08865 -2.05367,-7.34375 -0.32517,-0.67599 -0.75059,-1.59169 -0.9646,-2.03125 -0.98017,-2.01305 -1.51939,-3.48741 -1.89812,-5.21875 -0.22521,-1.03017 -0.64815,-2.54539 -0.93348,-3.34375 -0.28544,-0.79836 -0.64702,-1.95146 -0.80904,-2.53125 -0.16193,-0.5798 -0.38103,-1.21932 -0.49788,-1.46875 -0.36795,-0.78674 -1.22961,-3.98069 -2.14703,-7.90625 -0.58675,-2.51046 -0.63769,-2.72719 -0.62232,-4.9375 l 0,-2.375 -0.4356,-0.375 c -0.25272,-0.22947 -0.79249,-0.67745 -1.21356,-0.9375 l -0.77788,-0.4375 -0.28021,0.8125 c -0.15931,0.4453 -0.37668,1.72581 -0.46672,2.875 -0.0899,1.14918 -0.22217,2.31662 -0.28021,2.59375 -0.0576,0.27714 -0.15407,0.93248 -0.2178,1.4375 -0.0637,0.505 -0.19554,1.6273 -0.31121,2.5 -0.12046,0.90718 -0.16977,2.63183 -0.12436,4 0.0437,1.31621 0.0218,2.71184 -0.0305,3.125 -0.052,0.41319 -0.11123,1.2684 -0.12436,1.90625 -0.0607,2.93391 -0.17415,4.05114 -0.80904,6.8125 -0.37405,1.62656 -0.77255,3.55278 -0.87128,4.3125 -0.0986,0.75974 -0.24966,1.66066 -0.34219,2 -0.24573,0.8993 -0.6493,3.32249 -0.68456,4.1875 -0.0174,0.41062 -0.10786,1.42542 -0.1868,2.25 -0.079,0.82457 -0.15539,2.45196 -0.21781,3.59375 -0.062,1.14184 -0.15713,2.30863 -0.18681,2.59375 -0.0533,0.51065 -0.0494,0.49987 0.71568,0.53125 0.85366,0.035 1.42024,0.34219 2.17816,1.15625 0.47231,0.50727 0.73397,1.2103 1.05797,2.90625 0.0633,0.33143 0.28938,0.77003 0.49788,1 0.4273,0.47218 0.61519,1.78906 0.37361,2.6875 -0.19422,0.72097 -1.47889,1.44744 -2.64491,1.53125 -0.97137,0.0698 -0.88892,-0.0493 -1.05797,2.15625 -0.15669,2.04612 -0.63218,4.08542 -1.18243,5.0625 -0.27367,0.48582 -0.73506,1.34632 -0.99572,1.9375 -0.26058,0.59117 -0.58165,1.33216 -0.71569,1.625 -0.13399,0.29287 -0.34393,0.96336 -0.49788,1.46875 -0.58509,1.92311 -0.92356,2.62998 -1.27575,2.75 -0.52524,0.17898 -0.80633,0.0313 -0.99577,-0.53125 -0.17283,-0.51315 -0.003,-1.52978 0.37362,-2.09375 0.0956,-0.14334 0.28589,-0.6638 0.37362,-1.125 0.0873,-0.46118 0.21824,-0.96762 0.31121,-1.15625 0.0929,-0.18869 0.23481,-0.95188 0.34219,-1.6875 0.10733,-0.73559 0.41726,-2.10443 0.65344,-3.03125 0.44131,-1.73015 0.80895,-4.91212 0.62232,-5.3125 -0.0576,-0.12353 -0.41203,-0.21793 -0.77792,-0.25 -0.49203,-0.0432 -0.78705,-0.20796 -1.18245,-0.625 l -0.52896,-0.59375 -0.0624,0.625 c -0.0263,0.33327 -0.0868,0.87489 -0.12436,1.21875 -0.0393,0.34389 -0.035,1.43735 0.0305,2.4375 0.14317,2.19621 0.0131,2.65228 -1.02684,2.90625 -0.82427,0.20151 -1.47958,-0.14194 -1.83587,-0.96875 -0.39632,-0.91918 -0.51892,-3.8569 -0.24879,-5.59375 0.18767,-1.20751 0.19728,-1.63156 0.0305,-1.9375 -0.11617,-0.21398 -0.26887,-0.9584 -0.31121,-1.65625 -0.0995,-1.64092 0.35921,-2.75217 1.36916,-3.40625 0.44543,-0.28847 0.76636,-0.6551 0.9646,-1.125 0.39021,-0.92477 0.82489,-4.53437 0.71568,-6.125 -0.0934,-1.36583 0.0563,-4.67277 0.24879,-5.125 0.0668,-0.15628 0.14796,-0.57749 0.1868,-0.9375 0.0392,-0.35997 0.323,-1.32115 0.65345,-2.125 0.79952,-1.94453 1.1995,-3.36667 1.27575,-4.875 0.18201,-3.59439 0.28241,-4.90195 0.49789,-6.375 0.35965,-2.46136 1.0336,-5.54878 1.43135,-6.5 0.19598,-0.46855 0.35879,-1.05192 0.34219,-1.28125 -0.0174,-0.22933 0.0131,-0.40053 0.0934,-0.40625 0.0794,-0.006 0.25228,-0.26038 0.34219,-0.5625 0.0899,-0.3022 0.28677,-0.92139 0.46676,-1.34375 0.17983,-0.42239 0.48204,-1.69842 0.68456,-2.84375 0.40417,-2.28509 1.1071,-5.35124 1.52467,-6.625 0.14709,-0.44838 0.29462,-1.16602 0.31121,-1.59375 l 0.0305,-0.78125 -1.86695,-1.0625 c -1.02243,-0.58817 -2.12164,-1.28937 -2.45825,-1.5625 -0.33652,-0.27315 -0.92863,-0.69532 -1.30688,-0.9375 -2.51912,-1.61259 -4.58009,-4.20632 -6.12995,-7.65625 -0.19772,-0.44073 -0.51726,-0.96479 -0.68456,-1.15625 -0.2789,-0.31888 -1.64567,-2.64906 -2.86272,-4.84375 -0.27148,-0.48969 -0.5183,-0.97533 -0.529,-1.125 -0.009,-0.1497 -0.0563,-0.28088 -0.12436,-0.28125 -0.0677,-3.6e-4 -0.75569,0.0157 -1.52467,0.0312 -1.25839,0.0254 -1.46754,-0.01 -1.83587,-0.375 -0.22523,-0.22317 -0.35224,-0.52026 -0.31122,-0.65625 0.0925,-0.30617 -0.48517,-2.21628 -0.84016,-2.78125 -0.14403,-0.22916 -0.51896,-1.0233 -0.80904,-1.78125 -0.29025,-0.75797 -0.68691,-1.65498 -0.93348,-1.96875 -0.60381,-0.76811 -1.75267,-2.7055 -1.77364,-3 -0.0174,-0.23759 -0.74548,-1.46714 -1.46246,-2.5 -0.21039,-0.30329 -0.6661,-0.97999 -1.02689,-1.5 -1.06032,-1.52832 -1.43961,-1.94262 -2.70711,-3.09375 -0.661,-0.6003 -1.40326,-1.43773 -1.64921,-1.84375 -0.24573,-0.40602 -0.51102,-0.75578 -0.59119,-0.78125 -0.28502,-0.0908 -2.20754,-2.66498 -2.33377,-3.125 -0.0707,-0.25749 -0.20077,-0.52087 -0.2802,-0.5625 -0.21824,-0.11468 -0.90717,-1.47378 -0.93348,-1.84375 -0.0131,-0.17887 -0.24662,-0.6577 -0.49788,-1.0625 -0.25141,-0.40478 -0.53948,-1.07729 -0.68457,-1.46875 -0.18594,-0.50228 -0.38889,-0.70371 -0.62231,-0.71875 -0.70403,-0.0454 -1.92397,-1.62685 -2.20928,-2.90625 -0.16411,-0.73533 -0.17765,-0.78639 -0.68456,-0.75 -0.292,0.021 -0.75964,-0.0291 -1.02685,-0.0937 -0.26711,-0.0647 -0.80536,-0.11651 -1.21355,-0.125 l -0.71569,-0.0312 -0.49788,1.28125 c -0.51607,1.36397 -0.9597,1.8459 -2.2404,2.53125 -1.43249,0.76655 -3.93303,1.41309 -4.85415,1.25 -0.52656,-0.0932 -1.88864,-1.16184 -2.4582,-1.9375 -0.28981,-0.39462 -0.56326,-0.58017 -0.80904,-0.5625 -0.44206,0.0318 -3.33379,-1.5799 -3.82736,-2.125 -0.33258,-0.36709 -0.47667,-0.3946 -2.05367,-0.28125 -2.0302,0.14588 -2.59652,-0.0531 -3.64064,-1.25 -0.82563,-0.94644 -0.94369,-1.18933 -1.18244,-2.1875 -0.29898,-1.25006 0.23483,-3.47371 1.21357,-5 0.19466,-0.30364 0.34655,-0.59681 0.34219,-0.65625 -0.0131,-0.16636 0.6516,-0.75927 0.87127,-0.78125 0.10733,-0.0107 0.26625,-0.19557 0.37362,-0.375 0.10695,-0.17946 0.54964,-0.56579 0.99573,-0.875 0.44601,-0.30922 1.30294,-0.91679 1.89811,-1.375 0.86735,-0.66766 1.25987,-0.89406 1.83587,-0.9375 0.85117,-0.0642 0.98814,-0.13654 1.27576,-0.8125 0.12007,-0.28157 0.35573,-0.70638 0.52901,-0.9375 0.17328,-0.23107 0.31382,-0.49412 0.31119,-0.59375 -0.003,-0.0996 0.26189,-0.51865 0.59121,-0.90625 0.40461,-0.47623 0.76858,-1.18224 1.08908,-2.1875 0.26101,-0.8182 0.75338,-2.08429 1.1202,-2.8125 1.10021,-2.18429 2.05913,-3.11835 3.32947,-3.3125 1.32369,-0.20222 2.32093,-0.4675 2.42709,-0.65625 0.0585,-0.10391 0.0305,-0.33725 -0.0305,-0.5 -0.0733,-0.18788 0.0263,-0.37327 0.21779,-0.53125 0.46087,-0.37611 0.41291,-1.26186 -0.0624,-3.1875 -0.53088,-2.15264 -0.52233,-2.20433 -1.43136,-3.15625 -0.40679,-0.42571 -1.24155,-1.37097 -1.867,-2.125 -0.2357,-0.28438 -0.50618,-0.558 -0.74681,-0.8125 l 2.45821,-1.25 -1.33801,-3.0625 c -0.009,-0.0587 0.009,-0.13413 0,-0.1875 -0.0816,-0.50935 -0.23176,-1.07402 -0.34219,-1.25 -0.11045,-0.17601 -0.2322,-0.51508 -0.24878,-0.75 -0.0263,-0.33857 -0.44215,-0.91709 -0.90241,-1.375 l -2.86272,-6.59375 c -0.23394,-0.91505 -0.94473,-2.51759 -1.77364,-3.9375 -0.46833,-0.8024 -0.86098,-1.57424 -0.87127,-1.71875 -0.009,-0.14449 -0.32997,-0.55632 -0.71568,-0.9375 -0.3854,-0.38114 -0.91039,-1.06208 -1.15132,-1.46875 -0.24093,-0.40669 -0.54244,-0.89925 -0.71568,-1.125 -0.24312,-0.31691 -0.76269,-2.32049 -0.84012,-3.25 -0.004,-0.0571 -0.27149,-0.317 -0.56011,-0.5625 -0.29637,-0.25215 -0.71299,-0.91592 -0.9646,-1.5 -0.24486,-0.56878 -0.59173,-1.15483 -0.80904,-1.34375 -0.21737,-0.18891 -0.42644,-0.46495 -0.4356,-0.59375 -0.009,-0.12884 -0.22697,-0.43971 -0.46672,-0.6875 -0.93597,-0.96763 -1.82327,-4.86073 -1.58696,-6.9375 0.0873,-0.76693 0.0624,-1.2158 -0.18681,-2.125 -0.17458,-0.63718 -0.4407,-1.75165 -0.59125,-2.46875 -0.38365,-1.82646 -0.97874,-3.82263 -1.1202,-3.8125 -0.11565,0.008 -0.30727,-0.49904 -0.80899,-2.15625 -0.134,-0.44189 -0.35965,-1.46888 -0.49788,-2.28125 -0.13836,-0.8124 -0.3675,-1.83567 -0.49788,-2.28125 -0.13007,-0.44556 -0.26538,-1.24086 -0.34219,-1.78125 -0.0768,-0.54046 -0.25664,-1.56174 -0.37362,-2.28125 -0.11657,-0.71951 -0.20208,-1.38594 -0.18681,-1.46875 0.0174,-0.0829 -0.082,-0.43637 -0.24879,-0.78125 -0.19161,-0.39646 -0.3339,-1.07998 -0.37361,-1.84375 -0.035,-0.66426 -0.0992,-1.26505 -0.15539,-1.34375 -0.11916,-0.16561 -0.3758,-1.5209 -0.62232,-3.46875 -0.10604,-0.83825 -0.26318,-1.52289 -0.4356,-1.75 -0.15451,-0.20315 -0.30203,-0.46602 -0.3112,-0.59375 -0.009,-0.12772 -0.2178,-0.59123 -0.46675,-1.0625 -0.24923,-0.47124 -0.58278,-1.25926 -0.71569,-1.75 -0.32124,-1.18699 -0.48339,-3.8214 -0.24878,-4 0.1353,-0.10293 0.15101,-0.1663 0,-0.25 -0.30291,-0.16785 -0.35354,-3.59234 -0.18682,-5.59375 L 410.3439,705 c 0.004,-0.005 -0.004,-0.0263 0,-0.0312 0.0977,-0.12045 0.1903,-0.21455 0.24879,-0.21875 0.23394,-0.0168 1.60346,-1.58015 1.58692,-1.8125 -0.004,-0.0607 -0.35137,-0.4559 -0.80901,-0.90625 l 0.0305,-0.0625 9.24165,-8.34375 0.0934,-0.3125 c 0.0305,0.0914 0.0677,0.19297 0.0934,0.28125 0.1353,0.46791 0.29418,0.8475 0.34219,0.84375 0.048,-0.004 0.57932,-0.55299 1.21355,-1.1875 0.63433,-0.63451 1.4692,-1.34139 1.86701,-1.59375 0.39806,-0.25242 0.95189,-0.74746 1.21352,-1.09375 0.26144,-0.34626 0.462,-0.59776 0.46675,-0.53125 0.004,0.0665 0.11748,0.0539 0.2178,-0.0625 0.10045,-0.11638 0.3697,-0.23182 0.62237,-0.25 0.33739,-0.0242 0.45156,-0.12 0.43559,-0.34375 -0.0131,-0.16747 0.17677,-0.59752 0.40461,-0.96875 0.22741,-0.37123 0.66902,-1.14742 0.96464,-1.71875 0.29549,-0.57132 1.1051,-1.73712 1.80476,-2.59375 1.09668,-1.34269 1.28649,-1.70026 1.46248,-2.5625 0.41989,-2.05759 0.17851,-3.91743 -0.49788,-3.875 -0.29549,0.0185 -1.62263,-1.43973 -1.64916,-1.8125 -0.009,-0.12433 -0.11215,-0.19507 -0.21779,-0.1875 -0.36621,0.0263 -0.8066,-0.52895 -0.84017,-1 -0.0174,-0.2604 0.0555,-0.90777 0.18682,-1.4375 0.6908,-2.78975 0.71593,-2.68363 0.46675,-4.84375 -0.13094,-1.13655 -0.26144,-2.08087 -0.28022,-2.125 -0.0633,-0.14827 -0.50504,-4.82442 -0.59119,-6.28125 -0.0833,-1.41032 0.11474,-2.96904 0.56012,-4.1875 0.11527,-0.31544 0.29287,-0.84077 0.37362,-1.1875 0.0807,-0.34672 0.29898,-0.73816 0.46672,-0.875 0.42425,-0.34621 1.16729,-1.54247 1.15132,-1.84375 -0.0131,-0.24228 1.38915,-1.95228 1.61808,-1.96875 0.0629,-0.004 0.45808,-0.38815 0.90235,-0.875 0.44429,-0.48684 0.90633,-0.89982 0.99573,-0.90625 0.0894,-0.006 0.17327,-0.15858 0.21779,-0.34375 0.0441,-0.18519 0.18899,-0.33276 0.34219,-0.34375 0.15321,-0.011 0.55576,-0.21858 0.87124,-0.46875 0.36227,-0.28711 0.82013,-0.47105 1.21356,-0.5 0.34263,-0.0252 0.80865,-0.15826 1.05796,-0.3125 0.24923,-0.1543 0.88931,-0.4419 1.43136,-0.625 0.54205,-0.1831 1.38767,-0.54696 1.867,-0.8125 0.58649,-0.32482 1.37929,-0.58243 2.36489,-0.75 0.80558,-0.13698 2.45221,-0.43819 3.70282,-0.6875 1.32224,-0.26357 3.34572,-0.55363 4.82308,-0.65625 3.1345,-0.2177 4.13023,-0.0261 7.59244,1.375 1.3177,0.53322 2.52092,0.94648 2.64491,0.9375 0.12397,-0.009 0.68518,0.18283 1.24464,0.40625 0.55952,0.22346 1.19894,0.47788 1.43136,0.5625 0.49207,0.17907 1.00279,0.44434 2.20928,1.21875 0.86077,0.55249 2.30775,2.1038 2.33376,2.46875 0.009,0.10309 0.14011,0.36231 0.28022,0.59375 0.51254,0.84624 1.0748,1.95554 1.08908,2.15625 0.009,0.11326 0.32211,0.70531 0.68455,1.34375 0.36271,0.63843 0.64489,1.28536 0.65344,1.40625 0.009,0.12092 0.16892,0.53938 0.37318,0.9375 0.20471,0.39813 0.44848,1.02118 0.529,1.40625 0.20471,0.97762 1.17088,3.54326 1.33801,3.53125 0.0759,-0.005 0.16411,0.24442 0.1868,0.5625 0.045,0.6328 0.30161,1.02769 0.93348,1.59375 0.29287,0.26244 0.36052,0.53093 0.31121,0.8125 -0.0392,0.22889 0.0466,0.37831 0.15582,0.40625 0.10382,0.0267 0.23394,0.41504 0.3112,0.875 0.11604,0.68968 0.0485,1.02675 -0.28022,1.84375 -0.6592,1.64028 -1.75042,2.81546 -2.76941,2.96875 l -0.43559,0.0625 0.12436,1.8125 c 0.11656,2.01983 -0.16543,4.87811 -0.5912,6.09375 -0.34787,0.99292 -1.28266,2.21856 -1.96036,2.5625 -0.28414,0.14423 -0.50425,0.34746 -0.49784,0.4375 0.0174,0.24223 1.02061,3.38972 1.21353,3.8125 0.16585,0.36314 0.18374,0.36212 1.27579,-0.40625 0.60141,-0.42316 1.50451,-1.22278 2.05368,-1.78125 0.8639,-0.87867 1.84129,-1.61624 2.11592,-1.625 0.0463,-10e-4 0.16193,-0.025 0.24879,-0.0312 0.0868,-0.006 0.4046,-0.24648 0.68455,-0.53125 0.642,-0.65327 2.81628,-2.20792 4.26296,-3.0625 1.19361,-0.70514 3.76504,-2.01108 4.04515,-2.03125 0.0943,-0.007 0.95605,-0.44494 1.89813,-1 0.56518,-0.33306 1.06904,-0.62157 1.49355,-0.84375 l 6.69008,-157.0625 -0.1868,-0.96875 -74.30636,-263.8125 c -0.0515,0.13123 -0.0982,0.24867 -0.12436,0.3125 l -0.0305,-0.28125 -0.5912,-2.65625 -4.44967,-15.8125 -0.0624,-0.1875 0,-0.21875 -0.27848,-233.44237972 2.98715,0 0.27848,208.22352972 4.29408,-34.25 11.04639,-49.40625 -2.17817,-3.4375 c 0.0263,-0.31907 0.0305,-0.63429 0.0305,-0.9375 -0.004,-3.60022 -3.27611,-10.87424 -4.51192,-10.03125 -0.99158,0.67639 -1.81253,-3.11132 -1.83588,-8.5625 -0.009,-2.532476 -0.82463,-9.095646 -1.83588,-14.59375 -1.01126,-5.4981 -1.90065,-11.689355 -1.96032,-13.75 -0.22609,-7.800913 1.40906,-20.654964 4.01404,-31.5 0.78656,-3.27467 1.61149,-8.540501 1.83583,-11.6875 0.99023,-13.878241 3.06835,-28.92823802 4.48159,-29.98781702 0.53576,-0.4016922 70.88985,1.38478592 156.32953,1.23781702 L 744.53559,0.40625 z M 427.2091,260.0625 437.602,296.96875 c 0.0218,-1.46628 0.10993,-3.03477 0.28022,-4.8125 0.65121,-6.80127 -0.18856,-10.26207 -3.23613,-13.375 -1.87585,-1.91599 -4.38285,-7.99479 -4.41851,-10.71875 -0.009,-0.56618 -1.32442,-4.00469 -3.01831,-8 z m 13.78462,48.875 50.65773,179.84375 -0.71568,-4.28125 0,-18.625 c 0.97324,6.20376 1.46872,8.09445 1.89811,8.09375 0.38192,-6.2e-4 0.79141,-6.35051 0.90236,-14.125 0.11084,-7.77451 0.19031,-16.82036 0.18681,-20.09375 -0.009,-6.09728 -1.38548,-13.21538 -2.76935,-14.28125 -1.06957,-0.82375 -2.67028,-3.42467 -4.07628,-6.3125 l -0.0305,-0.0625 -4.76083,-21.625 -0.59121,-3.5 0.12436,-1.8125 c 0.24617,-3.81936 0.16498,-10.0566 -0.18681,-13.875 -0.3518,-3.81837 -0.67867,-10.16971 -0.71568,-14.125 -0.0642,-6.8551 -0.14098,-7.19076 -2.14704,-7.1875 -2.46653,0.004 -2.94926,0.27797 -2.61379,3.5625 l -0.37363,-2.25 -6.16107,-4.625 c -0.7392,-3.94918 -1.28985,-6.00061 -1.74251,-6.59375 -0.62661,-0.82096 -1.70063,-4.61961 -2.36489,-8.4375 -1.10016,-6.32313 -1.60559,-7.37097 -5.69431,-11.65625 -2.98284,-3.12623 -5.26758,-4.69001 -6.81451,-4.6875 -2.6475,0.004 -8.2729,-5.41887 -8.27701,-7.96875 -0.001,-0.89643 -1.39089,-3.00182 -3.08056,-4.6875 -0.22695,-0.22645 -0.44676,-0.45184 -0.65343,-0.6875 z m 57.69009,220.15625 -6.03665,142.21875 c 0.19816,-0.16863 0.43212,-0.40452 0.59125,-0.625 0.62799,-0.87042 2.15895,-2.02201 4.66748,-3.5 2.74259,-1.61594 3.09076,-1.76799 4.44967,-2 1.90965,-0.32605 2.65099,-0.69283 4.26296,-2.09375 0.27541,-0.23929 0.98092,-0.72946 1.58696,-1.125 0.60599,-0.39559 1.53441,-1.00252 2.05367,-1.34375 0.81145,-0.53316 2.34564,-1.47673 4.6986,-2.8125 0.32604,-0.18522 0.94042,-0.65239 1.338,-1.0625 0.39762,-0.41009 0.99825,-0.96189 1.36912,-1.21875 0.371,-0.25686 1.10135,-0.92993 1.61808,-1.5 0.5167,-0.57003 1.2782,-1.31189 1.7114,-1.65625 0.43298,-0.34432 1.04285,-0.86997 1.30692,-1.125 0.26406,-0.25504 0.82227,-0.68491 1.24463,-0.96875 1.3346,-0.89686 2.78486,-2.17367 4.41857,-3.875 2.30011,-2.39532 2.40643,-2.51687 3.48503,-3.28125 -1.36829,-1.66977 -2.33302,-3.04273 -2.33372,-3.46875 -10e-4,-0.66863 -1.75688,-4.20552 -3.88955,-7.84375 -1.13902,-1.94306 -2.36419,-4.51841 -3.57844,-7.5 l 2.17815,10.25 -13.38011,-23.875 4.01404,-20.25 0.24879,1.125 0.0305,-0.4375 c 0.10564,-1.16927 0.17328,-2.29076 0.24879,-3.34375 l 4.10736,-20.625 -5.50761,-5.53125 -1.99147,-4.5625 c -0.0131,0.52059 -0.0131,0.99305 -0.0305,1.53125 -0.009,0.20189 -0.0262,0.71307 -0.0305,0.96875 l -7.59243,-7.625 -5.25868,-22.84375 z m 42.47408,129.4375 c -1.03923,0.66055 -2.21325,1.30574 -2.70715,1.4375 -0.30073,0.0802 -0.76597,0.2531 -1.02685,0.40625 -0.83483,0.4899 -2.99841,2.43491 -4.76083,4.25 -1.31377,1.353 -2.76376,2.03626 -4.66748,2.15625 -1.7636,0.11117 -2.14429,0.2564 -2.33375,1.1875 -0.18245,0.8959 -1.96905,4.92937 -3.0494,6.84375 -0.42861,0.75906 -0.85356,1.71846 -0.96464,2.125 -0.11085,0.40659 -0.44341,1.08684 -0.71569,1.53125 -0.27235,0.44438 -0.56583,1.13471 -0.65343,1.5 -0.0877,0.36532 -0.43648,1.18232 -0.77793,1.84375 -0.69642,1.34859 -0.99567,2.15721 -1.52467,4 -0.52179,1.81761 -1.02505,3.25288 -1.30692,3.75 -0.37274,0.65734 -0.95613,2.30689 -1.30688,3.8125 -0.48958,2.10136 -1.19501,3.18148 -4.01403,6.0625 -1.17978,1.20575 -3.78328,4.34836 -4.8542,5.84375 -0.28807,0.40214 -0.8622,0.94206 -1.27576,1.1875 -0.41378,0.24544 -0.98288,0.62711 -1.2758,0.875 -0.29287,0.24788 -0.81542,0.6428 -1.15132,0.84375 -0.33608,0.20094 -0.67339,0.49404 -0.74681,0.6875 -0.15625,0.41174 -1.62265,0.92262 -2.08478,0.71875 -0.16718,-0.0737 -0.80355,-0.0124 -1.5558,0.15625 -1.67801,0.37628 -3.06048,0.51505 -3.70288,0.375 -0.65152,-0.14205 -2.61376,-0.003 -3.70288,0.21875 l -2.6138,61.53125 c 0.82767,0.68815 1.06498,1.96131 0.56013,3.59375 -0.1938,0.62626 -0.47681,1.11113 -0.77792,1.53125 l -0.0624,1.625 -1.96035,-0.0937 c -0.2047,0.16316 -0.39064,0.34296 -0.56008,0.53125 -0.8571,0.95157 -0.78987,1.26738 0.28022,1.40625 0.35703,0.0463 1.11622,0.16185 1.71139,0.25 0.59517,0.0881 1.50028,0.1698 1.99149,0.1875 0.61734,0.0223 1.2132,0.2072 1.99143,0.59375 2.00423,0.9955 2.11553,1.06867 3.11168,3.09375 0.21998,0.44728 0.2466,0.73457 0.15538,1.46875 -0.086,0.69273 -0.0528,1.1723 0.15582,1.90625 0.1519,0.53503 0.27935,1.29887 0.31121,1.71875 0.0305,0.41989 0.26712,1.44614 0.49788,2.28125 0.23045,0.8351 0.53017,2.20695 0.65343,3.0625 0.13793,0.95575 0.32343,1.73546 0.49788,1.96875 0.15582,0.20881 0.3937,0.94628 0.49784,1.625 l 0.15538,1.1875 1.24464,0.625 c 1.68404,0.80563 2.23158,1.22633 4.41856,3.15625 1.29706,1.14465 2.48998,2.384 3.67176,3.875 1.83121,2.31036 2.88764,3.35104 4.44967,4.34375 1.57737,1.00247 4.3331,3.83912 6.50337,6.71875 0.60035,0.79656 1.2562,1.57598 1.46247,1.75 0.20601,0.17404 0.72467,0.84827 1.15132,1.5 0.42687,0.65173 0.93619,1.31916 1.1202,1.46875 0.1842,0.14954 0.30203,0.3742 0.31121,0.5 0.009,0.1258 0.15843,0.32183 0.2802,0.4375 0.21999,0.20936 0.49187,0.61531 1.36913,2.03125 0.25315,0.40892 0.83417,1.08429 1.30692,1.5 0.63527,0.55872 1.02269,1.07017 1.46243,2 1.02714,2.17188 1.22998,2.51445 2.11596,3.6875 0.47514,0.62913 0.86736,1.22672 0.87125,1.28125 0.004,0.0545 0.79498,1.0841 1.77364,2.34375 1.96869,2.53382 2.34579,3.12382 3.64063,5.5625 1.6492,3.10618 1.81524,3.39906 2.64491,4.5 0.45538,0.60421 1.2412,1.45087 1.74252,1.84375 0.57837,0.45325 1.21741,1.15576 1.71145,1.9375 0.42817,0.67769 0.88507,1.4077 1.02683,1.625 0.55559,0.85163 1.28358,2.35791 1.5558,3.21875 0.25534,0.80736 0.24792,1.10454 0.0624,2.65625 -0.11435,0.95552 -0.2117,2.57825 -0.2178,3.625 -0.009,1.82791 -0.38192,4.58789 -1.1202,7.9375 -0.28196,1.27958 -1.01877,4.72945 -1.36912,6.53125 -0.25533,1.31278 -0.42556,4.2307 -0.34219,5.34375 0.0437,0.5558 -0.004,2.14166 -0.0934,3.5 -0.089,1.35831 -0.19773,3.23071 -0.21781,4.1875 -0.0218,0.95677 -0.12046,2.29136 -0.24878,2.9375 -0.26362,1.32507 -0.70298,4.14042 -1.02684,6.75 -0.20951,1.68968 -0.21212,1.79398 0.12435,2.6875 0.30946,0.82242 0.33391,1.0843 0.21781,2.15625 -0.0729,0.6721 -0.35879,1.89825 -0.68456,2.75 -0.64747,1.69324 -0.79818,2.58916 -0.80904,6.46875 -0.009,2.84372 -0.035,3.14196 -0.46672,4.03125 -0.1903,0.38983 -0.60835,1.42594 -0.9024,2.28125 -0.53114,1.5448 -0.52478,1.56498 -0.28022,2.8125 0.13531,0.69067 0.34874,1.94398 0.46676,2.78125 l 0.21781,1.5 0.77792,0.40625 c 0.82841,0.41082 2.96733,0.86245 6.53447,1.40625 1.86766,0.28475 2.45003,0.31343 3.45391,0.15625 1.05892,-0.16582 1.35424,-0.11673 2.30265,0.1875 0.93199,0.29895 1.15236,0.28929 1.58695,0.0937 0.2776,-0.12486 1.29343,-0.31984 2.24036,-0.4375 1.40844,-0.175 1.79481,-0.16101 2.2404,0.0312 0.29985,0.12931 0.56475,0.15907 0.56013,0.0937 -0.004,-0.0653 0.25402,0.12185 0.59119,0.40625 0.33738,0.28446 0.64527,0.60387 0.65344,0.71875 0.009,0.11484 0.22085,0.47104 0.49788,0.75 0.27716,0.27898 0.78455,0.92768 1.1202,1.46875 0.48723,0.7856 0.5885,1.09269 0.52895,1.53125 -0.0392,0.3021 -0.0437,0.93794 -0.0305,1.4375 0.0349,1.44935 9.6e-4,2.4343 -0.0624,3.1875 1.62589,-0.4733 4.0442,-1.98071 5.63207,-3.59375 1.28458,-1.30485 6.33261,-0.83872 9.36608,0.875 0.83615,0.4724 2.48988,0.87692 3.67176,0.875 1.18187,-0.002 4.52457,1.33677 7.43688,2.96875 2.91229,1.63197 6.42543,2.93969 7.77911,2.9375 2.15615,-0.003 2.5028,-0.45935 2.92496,-3.71875 1.28418,-9.915 8.51613,7.54743 11.60647,-24.21875 1.274,-13.09568 6.65358,-31.2367 7.18791,-34.84375 0.53433,-3.60726 0.69517,-8.05755 0.34219,-9.90625 -1.57883,-8.27 -1.63362,-13.02074 -0.12436,-16.71875 2.05491,-5.0353 1.55737,-8.37678 -1.33803,-8.8125 -1.24036,-0.18664 -2.77075,-0.81597 -3.39168,-1.375 -1.34337,-1.20966 -1.53781,-8.30824 -0.24878,-9.1875 0.49547,-0.338 0.90483,-1.86796 0.90235,-3.40625 -0.003,-2.14351 -0.6001,-3.06941 -2.58268,-3.96875 -1.42281,-0.64545 -3.14769,-2.32768 -3.82732,-3.71875 -1.13568,-2.32443 -8.20086,-7.97859 -11.82431,-9.46875 -0.83972,-0.34534 -2.23895,-1.87809 -3.11164,-3.40625 -0.87268,-1.52826 -2.56801,-3.70129 -3.76511,-4.8125 -1.86277,-1.72901 -2.16215,-2.84391 -2.11592,-7.84375 0.0437,-4.5387 -0.49435,-6.92285 -2.36484,-10.6875 -1.97607,-3.97712 -2.18392,-5.01439 -1.15132,-5.71875 0.98245,-0.67016 0.37013,-1.92964 -2.86272,-5.71875 -1.32071,-1.54789 -2.21053,-2.70371 -2.86271,-3.78125 l 0.43559,-5.6875 -6.50335,-13.0625 -6.50336,-21.75 -5.56983,-19.53125 c -0.0581,-3.83035 -0.47924,-6.05274 -1.52472,-9.0625 -0.98843,-2.84548 -1.80306,-5.89331 -1.80476,-6.78125 -10e-4,-0.60459 -0.32954,-1.40197 -0.77792,-2.09375 l -3.32948,-23.4375 -6.90787,-8.5 c -0.40985,-0.77204 -0.86102,-1.56116 -1.30689,-2.28125 -0.0263,-0.0391 -0.0392,-0.0855 -0.0624,-0.125 z M 414.10901,702.4375 c -0.0305,-0.011 -0.0812,2e-5 -0.12436,0.0312 -0.086,0.0624 -0.15844,0.14757 -0.15539,0.1875 0.003,0.0399 0.0964,0.069 0.18682,0.0625 0.0903,-0.006 0.13137,-0.0916 0.12436,-0.1875 -0.003,-0.0479 -4.9e-4,-0.0827 -0.0305,-0.0937 z m 73.83956,9.28125 c -0.16368,0.10565 -0.34699,0.20813 -0.52896,0.34375 -0.45332,0.33818 -1.04002,0.64986 -1.30692,0.71875 -0.26668,0.069 -0.76963,0.27125 -1.12016,0.4375 -0.35048,0.16627 -0.9147,0.31607 -1.24468,0.34375 -0.51027,0.0428 -0.6427,0.16947 -1.02683,0.78125 -0.24835,0.39552 -0.4177,0.7822 -0.37318,0.84375 0.044,0.0616 -0.189,0.45136 -0.52901,0.875 -1.31683,1.64138 -2.2452,3.58711 -2.76936,5.875 -0.0847,0.37004 -0.2239,0.8938 -0.3112,1.15625 -0.0873,0.26244 -0.16411,0.59924 -0.15582,0.71875 0.009,0.11954 -0.0703,0.41853 -0.18681,0.6875 -0.11604,0.26893 -0.19816,0.61202 -0.18681,0.78125 0.0507,0.74134 -0.57627,2.54741 -1.08908,3.125 -0.47325,0.53319 -0.58805,0.61195 -1.15132,0.5625 -0.34874,-0.0306 -0.83806,-0.15812 -1.05795,-0.28125 -0.70424,-0.39433 -4.56242,-1.43804 -5.8188,-1.5625 l -0.65343,-0.0312 0.46676,0.9062 c 0.25357,0.51286 0.77272,2.27099 1.18243,3.9375 0.4068,1.65401 1.0158,3.69007 1.338,4.53125 0.74593,1.94744 1.24503,3.59639 1.30688,4.34375 0.23132,2.79651 0.60953,6.00959 0.87127,7.5 0.17372,0.98836 0.32867,2.48293 0.34219,3.3125 0.0174,1.17789 0.1484,1.9334 0.56009,3.4375 0.28981,1.05936 0.6122,2.03692 0.71567,2.1875 0.10344,0.15055 0.17808,0.34983 0.18682,0.46875 0.0218,0.28818 1.59499,2.17135 1.80476,2.15625 0.0903,-0.007 0.29375,0.22523 0.46676,0.53125 0.17284,0.30599 0.41071,0.57104 0.52895,0.5625 0.11877,-0.009 0.24093,0.0775 0.2488,0.1875 0.009,0.10999 0.15145,0.32857 0.34219,0.5 1.29461,1.16211 2.52082,2.72358 3.17387,4.0625 0.46952,0.96274 0.57815,1.36536 0.68457,2.78125 0.12436,1.65552 0.0263,2.64919 -0.31121,3.40625 -0.17285,0.38673 -0.14054,0.41103 0.2178,0.28125 0.58587,-0.21218 1.94817,-0.5646 2.86272,-0.75 L 487.948,711.71875 z M 480.63622,714 c -0.0349,0.007 -0.0698,0.0617 -0.12436,0.125 -0.099,0.11479 -0.11214,0.23785 -0.0624,0.28125 0.11695,0.10201 0.26449,-0.12406 0.24878,-0.34375 -0.004,-0.0516 -0.0305,-0.0692 -0.062,-0.0625 z m -40.98049,84.5625 -0.0934,0.65625 c -0.0466,0.36732 -0.0611,0.9348 -0.0305,1.25 0.0305,0.31525 0.0131,0.7094 -0.0624,0.875 -0.15626,0.35165 -0.18244,0.36265 0.37361,-0.0312 0.48419,-0.34309 0.48981,-0.42431 0.0934,-1.78125 l -0.28022,-0.96875 z m -5.78772,5.25 -0.74676,0.9375 c -0.40985,0.51626 -0.72607,1.06459 -0.71568,1.21875 0.0263,0.40706 -0.23176,1.1095 -0.84017,2.1875 -0.98214,1.74083 -1.12756,2.25164 -1.08907,3.875 0.0174,0.82807 0.0494,1.50148 0.0624,1.5 0.18027,-0.0213 0.95818,-0.81669 1.36913,-1.375 0.29156,-0.39593 0.73763,-0.79784 0.93348,-0.875 0.19553,-0.0771 0.36358,-0.19109 0.4046,-0.25 0.2632,-0.37735 1.16206,-0.93335 1.7114,-1.0625 1.40443,-0.33024 2.5495,-1.75036 2.45824,-3.03125 -0.0476,-0.66673 -0.14884,-0.76139 -1.15132,-1.59375 -0.59482,-0.49373 -1.37816,-1.04615 -1.74252,-1.21875 l -0.65348,-0.3125 z m 4.63639,8.96875 c -0.0524,-0.007 -0.10564,-0.0192 -0.12436,0 -0.0751,0.0769 -0.45288,0.28543 -0.84014,0.46875 -0.38716,0.18328 -0.8791,0.49575 -1.08909,0.6875 -0.20995,0.19173 -0.50757,0.36226 -0.68455,0.375 -0.17679,0.0127 -0.49509,0.22596 -0.71569,0.5 -0.22085,0.27401 -0.6424,0.64619 -0.90236,0.8125 -0.38147,0.24407 -0.38976,0.29427 -0.12436,0.28125 0.51265,-0.0251 1.51141,0.57976 2.2404,1.34375 0.92188,0.96625 2.30409,3.44976 2.36484,4.25 0.0218,0.25778 0.0555,0.61271 0.12436,0.8125 0.10863,0.3154 0.24442,0.38129 0.90241,0.3125 1.93508,-0.20234 2.0709,-0.39994 1.61802,-1.75 -0.17808,-0.53144 -0.31861,-1.23014 -0.34219,-1.5625 -0.0218,-0.33238 -0.14447,-0.70897 -0.24878,-0.875 -0.10435,-0.16605 -0.2728,-1.32604 -0.40461,-2.5625 -0.13137,-1.23645 -0.28808,-2.27438 -0.31121,-2.28125 -0.0218,-0.007 -0.32429,-0.23909 -0.71567,-0.5 -0.2933,-0.19571 -0.58968,-0.29039 -0.74681,-0.3125 z m 97.02138,66.0625 c -0.0437,-0.0365 -0.0882,0.21497 -0.12436,0.59375 -0.035,0.37881 -0.045,0.71084 0,0.75 0.045,0.0391 0.12215,-0.21219 0.15537,-0.59375 0.035,-0.38153 0.009,-0.71352 -0.0305,-0.75 z M 479.3293,891.5 l -0.59121,3.34375 c -0.96288,5.6193 -1.1177,6.92366 -1.21355,9.28125 -0.10565,2.59612 -0.36576,3.94468 -1.21357,6.125 -0.39674,1.02041 -0.67089,2.04458 -0.77786,3.03125 -0.089,0.81991 -0.19249,1.86438 -0.2488,2.3125 -0.0563,0.44811 -0.0764,1.89185 -0.0305,3.21875 0.0454,1.32691 0.20515,3.16246 0.34219,4.0625 l 0.2488,1.625 0.12436,-2.34375 c 0.0751,-1.2792 0.24312,-2.71123 0.34219,-3.21875 0.0992,-0.50753 0.22042,-1.43337 0.31121,-2.03125 0.17284,-1.13953 0.22347,-1.50261 0.56007,-4.75 0.22653,-2.18417 0.33303,-2.94932 0.52901,-4.09375 0.0712,-0.41454 0.182,-1.13406 0.24878,-1.59375 0.0668,-0.45974 0.18813,-0.90467 0.24879,-1 0.43472,-0.68449 1.20278,-6.15413 1.08909,-7.75 -0.0305,-0.43125 -0.0218,-1.17671 0.0305,-1.625 0.0507,-0.44828 0.0847,-1.64283 0.0624,-2.6875 L 479.32879,891.5 z m 59.12144,57.59375 c -0.14317,-0.0464 -0.26232,-0.004 -0.4356,0.125 -0.16455,0.12214 -0.11175,0.44586 0.24878,1.71875 0.22392,0.79068 0.40768,1.3199 0.71569,1.90625 0.19074,-0.96978 0.39718,-1.92042 0.62232,-2.84375 -0.19816,-0.0632 -0.36009,-0.18572 -0.5912,-0.4375 -0.25796,-0.28085 -0.41683,-0.42238 -0.56012,-0.46875 z"
     id="path2170"
     sodipodi:nodetypes="ccccsssscssssssssssssscccsssssssssssssssssssssssssssssssccccccsssssssssssssssssssssssssssssssssscccsssssssssssssssssssssscccsssssssssssssssssssssssssssscccsssssssssssssssssssssssssssscccsssccsssssssssssssssssssssssssssssssccsssccccssssssssssssssssssssssssssssssssssssssssssssssssssssssssscccssssssssssssccccccccccccccccssssssssccccssscccccsssscccccssscccsssssscccsssssssssssssscssccccccccccsccccssssssssssssssssssssssccscccsssssssssssscccssssssssssssssssssssssssssssssssssssscccssssssssssssscssssssssssssssssssssssscccccsscccsccssssccssssssssssssssscccssssssssssssssssscccssscccsssccccsssssssssscccsssssssssssssssssccssscccssssscccsssssssscccssccsc" />
  <path
     id="path1318"
     style="fill:#000000"
     d="" />
  <path
     id="path1316"
     style="fill:#000000"
     d="" />
  <path
     id="path22561"
     style="fill:#000000"
     d="" />
  <path
     id="path22563"
     style="fill:#000000"
     d="" />
  <path
     id="path22838"
     style="fill:#000000"
     d="" />
  <path
     id="path22840"
     style="fill:#000000"
     d="" />
  <path
     id="path23518"
     style="fill:#000000"
     d="" />
  <path
     id="path23520"
     style="fill:#000000"
     d="" />
  <path
     id="path23656"
     style="fill:#000000"
     d="" />
  <path
     id="path23658"
     style="fill:#000000"
     d="" />
  <path
     id="path5484"
     style="fill:#000000"
     d="" />
  <path
     id="path5486"
     style="fill:#000000"
     d="" />
  <path
     id="path8393"
     style="fill:#000000"
     d="" />
  <path
     id="path8395"
     style="fill:#000000"
     d="" />
  <path
     id="path33831"
     style="fill:#000000"
     d="" />
  <path
     id="path33833"
     style="fill:#000000"
     d="" />
  <path
     id="path2172"
     style="fill:#000000;fill-opacity:1;fill-rule:evenodd;stroke:none;stroke-width:1.99410188px;stroke-linecap:butt;stroke-linejoin:miter;stroke-opacity:1"
     d="M 2177.8915,591.6829 L 2177.8915,591.6829 z" />
  <rect
     id="rect7802"
     style="fill:#ffffff;fill-opacity:1;fill-rule:evenodd;stroke:none;stroke-width:4.02600002;stroke-linecap:round;stroke-linejoin:round;stroke-miterlimit:4;stroke-dasharray:none;stroke-dashoffset:0;stroke-opacity:1"
     y="883.11151"
     x="1445.9929"
     height="120.97707"
     width="1096.4747" />
  <rect
     style="fill:#ffffff;fill-opacity:1;fill-rule:nonzero;stroke:none"
     id="rect3546"
     width="300.45068"
     height="143.41927"
     x="-484.76251"
     y="-145.28186"
     transform="scale(-1,1)" />
  <path
     sodipodi:nodetypes="ccssscccsssssssssssssssssssssssssssssssssssssssssssssssssssssssssssscccssssssssssssssssssssssscccssssssssssssssssssssssssssssssssssssssssscccssssscsssscsssssssssssssssssssssssssssssscccssssssssssssssscsssssssssscccccssssccssssssssscsssccsssssssssssssssssssssssssccccccsssssssssssssssssssssssssssssssssssssssssssssscccssssssssssssssscccssssssssssssssssccssssssssssssssssssssssssssssssssssssssssscssssssssssscccssssssssssssscccssssssssssscccccccccssccscssssscccssccscscsccccsssscccscccccsccccccccccsssccssssccssccsscsccsccccccccssccscccssssscssccccssssccccssssccccccc"
     id="path2744"
     d="M 189.55461,-1.7653002 191.5112,511.40906 c 0.43922,0.0978 0.91266,0.19716 1.33804,0.3125 1.61403,0.43763 1.82148,0.62205 2.89384,2.59375 1.59272,2.92871 1.46894,4.831 -0.34219,6.84375 -0.70643,0.78493 -1.52604,1.8524 -1.86701,2.375 l -0.62232,0.9375 1.46245,1.53125 c 1.43961,1.47311 1.49416,1.5967 1.8048,4.59375 0.17589,1.6991 0.21997,3.88331 0.0934,4.84375 -0.3304,2.50957 -1.73929,6.68861 -2.92496,8.625 -1.42822,2.33273 -1.45584,2.74681 -1.24464,20 0.0834,6.80226 -0.0131,8.89738 -0.37361,9.5 -0.53729,0.89768 -0.59797,1.27457 -0.15582,1 0.17109,-0.10629 0.41944,0.0567 0.52899,0.34375 0.10955,0.28704 0.50854,0.53124 0.87125,0.53125 1.08287,0 2.23179,1.16004 4.38743,4.40625 1.1223,1.69018 2.14974,3.15396 2.27152,3.25 0.68887,0.54318 0.94911,1.90813 0.87124,4.78125 -0.0479,1.77289 -0.27148,3.44346 -0.46672,3.6875 -0.1951,0.24402 -0.40199,1.01519 -0.49788,1.6875 -0.096,0.67231 -0.44246,2.42567 -0.74681,3.90625 -0.68939,3.354 -0.29985,11.67774 0.62232,13.46875 0.31383,0.60923 0.56013,1.92336 0.56013,3 0,1.90731 0.53494,4.7339 1.55585,8.0625 0.64985,2.11897 1.78415,11.16848 2.45819,19.75 0.17852,2.27541 0.10382,2.77458 -0.52901,3.78125 -0.8419,1.33892 -3.01421,2.39782 -6.00547,2.96875 -1.77394,0.33857 -2.0539,0.51043 -2.36487,1.40625 -0.5122,1.47573 -0.41641,2.92378 0.1868,3.15625 0.62935,0.24251 0.70699,1.59939 0.0934,1.65625 -0.23918,0.0222 -0.67766,0.0366 -0.9646,0.0625 -0.39631,0.0357 -0.54418,0.61345 -0.62232,2.40625 -0.0973,2.23063 -0.0637,2.40918 0.74681,2.71875 0.64397,0.24589 0.79581,0.48421 0.65343,1.03125 -0.18637,0.71566 -1.44567,1.69365 -1.49359,1.15625 -0.0131,-0.15082 -0.14753,-0.0238 -0.28022,0.3125 -0.13269,0.33629 -0.22303,1.58172 -0.21779,2.71875 0.009,1.83118 0.12176,2.14662 0.96463,2.8125 0.86243,0.68127 0.9649,0.95104 0.93348,2.90625 -0.0174,1.18664 -0.17023,2.55103 -0.3112,3.03125 -0.21562,0.7345 0.004,1.17525 1.49359,2.8125 0.97308,1.07042 2.3655,2.70286 3.08053,3.625 1.46252,1.88632 1.46304,2.79995 0.0305,4.53125 -1.25716,1.52004 -1.37157,2.49544 -0.46672,4.15625 0.43517,0.79848 1.17201,1.85806 1.61805,2.34375 0.44611,0.48568 0.96765,1.41243 1.18244,2.03125 0.31338,0.9029 0.59464,1.09373 1.36911,1.09375 1.1484,1e-5 8.30327,2.13036 10.48627,3.125 1.02781,0.46829 2.27034,0.71362 3.79625,0.71875 2.58311,0.009 2.99662,0.25238 4.3563,2.46875 0.53028,0.8644 1.2213,1.75898 1.52469,2 1.24227,0.98706 5.67847,2.92028 8.74375,3.78125 2.24839,0.63148 3.57635,1.20275 4.29408,1.875 0.57378,0.53743 1.79865,1.21901 2.73828,1.53125 1.56636,0.52041 4.46456,2.39874 7.37463,4.84375 1.41286,1.1871 2.67849,4.77784 2.36484,6.71875 -0.18987,1.17569 -0.0624,1.39691 2.11592,3.5 1.29776,1.25301 2.30264,2.52354 2.30264,2.90625 0,0.82507 4.74377,4.11303 7.74803,5.375 2.50944,1.05409 6.14332,4.56224 7.96584,7.65625 1.23787,2.10149 1.31936,2.37741 1.338,5.375 0.0392,6.25038 1.17943,15.55584 2.20927,18.03125 0.31732,0.76261 1.08415,1.60333 2.05368,2.21875 0.855,0.54273 1.72183,1.28218 1.92924,1.6875 0.76172,1.4888 1.42303,5.40847 1.43136,8.46875 0.009,2.60493 0.15363,3.4517 0.87124,5 0.47633,1.02755 0.87127,2.04676 0.87127,2.28125 0,0.23447 0.52329,1.07045 1.18245,1.84375 l 1.21351,1.375 3.57844,0.21875 c 4.4887,0.27464 5.28618,0.74729 5.4454,3.21875 0.0598,0.92557 0.34743,2.01183 0.62232,2.40625 0.27498,0.39448 0.46676,1.07384 0.46676,1.5 0,0.88197 0.33303,1.1617 1.68028,1.40625 0.52289,0.0949 1.26655,0.43657 1.64915,0.78125 1.29493,1.16669 3.43498,2.46874 4.07629,2.46875 0.77721,1e-5 2.71065,1.41761 4.60523,3.375 1.50155,1.55129 3.69533,2.32006 4.44968,1.5625 0.21518,-0.21613 0.60259,-0.375 0.87128,-0.375 0.26886,-10e-6 1.28737,-0.42617 2.27152,-0.9375 1.97843,-1.02803 4.57049,-1.58623 7.59243,-1.625 1.68971,-0.0217 2.14582,0.1006 2.83161,0.84375 1.13822,1.23344 1.74753,3.35581 1.55579,5.40625 -0.24137,2.58153 -1.51175,4.65623 -2.80048,4.65625 -0.36576,-10e-6 -1.1779,0.39481 -1.80475,0.875 -0.62694,0.48021 -1.25983,0.90627 -1.40025,0.90625 -0.14054,1e-5 -0.82244,0.5609 -1.52471,1.28125 -1.44598,1.48323 -3.25864,2.42386 -5.2898,2.75 -0.76238,0.12244 -1.36917,0.43773 -1.36911,0.65625 0,0.21853 -1.37585,0.79552 -3.04944,1.3125 -2.64911,0.81829 -3.58076,0.92661 -7.40576,0.90625 -4.09758,-0.0219 -4.49608,0.0472 -5.91212,0.875 -0.83505,0.48813 -2.79502,1.29772 -4.32519,1.8125 -1.53018,0.51475 -3.35755,1.19554 -4.07629,1.5 l -1.30687,0.53125 0.2178,2.3125 c 0.45437,4.69257 0.5846,5.00308 1.77364,5.3125 1.30155,0.33871 2.00623,1.36573 2.33376,3.3125 0.24049,1.42963 0.24704,1.43923 1.33799,1.125 1.93278,-0.55671 4.50075,-0.35043 5.8188,0.4375 1.4651,0.87586 2.0848,1.61435 2.0848,2.5 0,0.36327 0.49037,1.77945 1.08908,3.15625 0.90341,2.07751 1.62117,3.075 4.3252,5.75 1.79214,1.77281 3.29835,3.4671 3.29835,3.75 0,0.28281 0.61843,0.9494 1.43136,1.5 4.70213,3.18499 10.10288,4.7061 16.46068,4.6875 3.66141,-0.0107 4.00277,0.0443 5.16531,0.875 1.01291,0.72381 1.24467,1.12735 1.24467,2.09375 0,0.65429 -0.14228,1.5001 -0.34219,1.875 -0.27235,0.51089 -0.21605,0.8603 0.18681,1.4375 0.54729,0.78471 0.67597,2.7811 0.24879,3.8125 -0.13007,0.314 -0.91672,1.11715 -1.7114,1.78125 -1.57613,1.31689 -3.70017,1.9762 -9.49055,2.875 -6.29489,0.977 -8.16618,1.3197 -8.33924,1.5625 -0.0956,0.13409 -1.51703,0.4105 -3.14279,0.625 -3.23281,0.4264 -10.21964,2.3003 -10.98411,2.9375 -0.26364,0.21981 -1.39208,0.50335 -2.48933,0.65625 -3.13651,0.4369 -11.11055,0.1365 -13.06895,-0.5 -2.19317,-0.71259 -4.76005,-2.3173 -4.76083,-3 -3.5e-4,-0.29349 -0.18419,-0.83985 -0.4356,-1.21875 -0.83135,-1.25329 -1.37947,-5.21465 -1.1202,-8.15625 0.16454,-1.86882 0.11787,-3.01815 -0.15582,-3.53125 -0.43603,-0.8185 -0.90048,-3.75825 -1.43135,-9.28125 -0.22654,-2.35659 -0.57484,-3.89865 -1.05797,-4.78125 -0.55623,-1.01609 -0.68923,-1.962 -0.68455,-4.125 0.003,-1.53139 -0.15408,-2.85192 -0.34219,-2.96875 -0.3937,-0.2444 -3.24774,-5.81823 -3.64065,-7.125 -0.14446,-0.48025 -0.80292,-1.76137 -1.46248,-2.84375 -0.65955,-1.08237 -1.69765,-3.45104 -2.33371,-5.25 -1.0886,-3.07871 -2.31473,-5.47721 -4.60528,-9 -2.25114,-3.46213 -2.88777,-5.57057 -2.89384,-9.6875 -0.003,-2.0489 -0.26101,-3.56018 -0.87123,-5.4375 -1.05662,-3.2508 -1.67046,-8.95104 -1.40025,-12.65625 0.32954,-4.51742 0.28633,-7.04114 -0.12436,-7.8125 -0.35573,-0.66785 -2.43533,-1.7998 -5.75655,-3.125 -0.7651,-0.30526 -1.85539,-0.92805 -2.396,-1.375 -0.5407,-0.44689 -1.28331,-0.81246 -1.64917,-0.8125 -0.36576,2e-5 -1.71912,-0.42765 -2.98719,-0.9375 l -2.27152,-0.90625 -2.14704,0.75 c -4.70292,1.7107 -6.93651,1.68787 -10.82855,-0.1875 -2.01199,-0.96944 -2.77403,-1.59576 -4.29408,-3.53125 -1.01449,-1.29177 -1.92435,-2.72623 -2.02255,-3.21875 -0.10695,-0.53665 -0.5342,-1.07504 -1.08909,-1.3125 -1.283,-0.54911 -3.75853,-2.01833 -5.69435,-3.40625 -0.90747,-0.65058 -2.06926,-1.31976 -3.17388,-1.90625 -0.28414,0.95879 -0.57898,2.09455 -0.71568,3.03125 -0.49422,3.38633 -0.50098,9.56692 0,9.90625 0.61354,0.4156 0.47321,4.26041 -0.37319,10.03125 -0.73562,5.01462 -1.50939,7.43601 -2.42707,7.4375 -0.18812,2.8e-4 -0.93212,0.40579 -1.77364,0.96875 0.0262,0.20112 0.0629,0.40474 0.0934,0.59375 0.16629,1.02608 0.27933,2.1088 0.2802,2.4375 9.2e-4,0.32868 0.0392,0.99927 0.0934,1.5 0.24661,2.3032 0.25097,3.21137 0.0305,5.4375 -0.12969,1.31127 -0.1855,2.8327 -0.18681,3.4375 -9.5e-4,0.6048 -0.0546,1.34991 -0.0934,1.625 -0.10214,0.72889 -0.12137,2.66299 -0.0624,3.34375 0.0262,0.32317 0.0392,1.12768 0.0624,1.78125 0.0218,0.65353 0.0895,1.91224 0.15538,2.8125 0.0659,0.9002 0.0881,1.83626 0.0934,2.0625 0.009,0.4052 0.0218,0.39655 0.62232,0.34375 0.67185,-0.0589 1.12971,0.12683 1.80476,0.6875 0.42076,0.34935 0.72759,0.89249 1.15131,2.1875 0.0829,0.25306 0.28066,0.59102 0.46677,0.75 0.3819,0.32645 0.65929,1.30339 0.56007,2.03125 -0.0794,0.58405 -0.99362,1.28521 -1.89811,1.46875 -0.75353,0.15291 -0.71129,0.0687 -0.62232,1.8125 0.0825,1.61773 -0.0716,3.24188 -0.40461,4.0625 -0.16542,0.40802 -0.44638,1.16701 -0.59121,1.65625 -0.1449,0.48925 -0.29767,1.06966 -0.37361,1.3125 -0.0755,0.24284 -0.21038,0.77626 -0.28022,1.1875 -0.26536,1.56479 -0.45192,2.18289 -0.71567,2.3125 -0.39326,0.19329 -0.60433,0.1088 -0.80904,-0.3125 -0.18681,-0.3843 -0.17547,-1.20794 0.0624,-1.6875 0.0607,-0.12193 0.13356,-0.53631 0.15538,-0.90625 0.0218,-0.3699 0.0707,-0.78042 0.12436,-0.9375 0.0537,-0.15707 0.14535,-0.78822 0.15582,-1.375 0.009,-0.58678 0.0947,-1.68793 0.18682,-2.4375 0.17195,-1.39919 0.12396,-3.92418 -0.0624,-4.21875 -0.0576,-0.0908 -0.33259,-0.13689 -0.62232,-0.125 -0.38932,0.016 -0.64443,-0.0885 -0.99571,-0.375 l -0.49788,-0.375 0.0305,0.46875 c 0.0131,0.26373 0.0263,0.69574 0.0305,0.96875 0.004,0.27305 0.15974,1.12983 0.3112,1.90625 0.3326,1.70493 0.22783,2.07105 -0.56012,2.375 -0.62516,0.24119 -1.16279,0.0488 -1.52472,-0.5625 -0.40242,-0.67961 -0.81506,-2.9879 -0.77788,-4.375 0.0262,-0.96439 0.004,-1.27725 -0.15582,-1.5 -0.11215,-0.15581 -0.27018,-0.70793 -0.37361,-1.25 -0.24268,-1.27469 -0.009,-2.19823 0.71567,-2.8125 0.31994,-0.27093 0.51425,-0.64334 0.62232,-1.03125 0.21257,-0.76354 0.18289,-3.60949 -0.0624,-4.84375 -0.21037,-1.05993 -0.41682,-3.62645 -0.3112,-4 0.035,-0.12909 0.0681,-0.49551 0.0624,-0.78125 -0.004,-0.28577 0.13313,-1.05595 0.3112,-1.71875 0.4308,-1.60327 0.58945,-2.78011 0.49788,-3.96875 -0.21824,-2.83242 -0.30073,-3.82492 -0.28021,-5 0.0262,-1.589 0.20165,-3.55946 0.37361,-4.65625 -0.0263,-0.009 -0.0664,0.0105 -0.0934,0 -0.49281,-0.19078 -1.06053,-0.35648 -1.27574,-0.375 -1.56083,-0.13433 -2.11004,-0.74662 -2.36489,-2.59375 -0.55693,-4.03622 0.61625,-13.92443 1.83588,-15.5625 0.2034,-0.27313 0.44537,-1.38356 0.56012,-2.53125 0.11474,-1.14772 0.58915,-4.33961 1.02684,-7.0625 0.43769,-2.72291 0.7314,-5.23869 0.71569,-5.59375 -0.0877,-1.98589 -0.71303,-6.17098 -1.12022,-7.71875 -0.003,-0.006 0.003,-0.025 0,-0.0312 -0.49721,-0.7794 -1.23716,-1.51246 -2.45819,-2.5 -2.4647,-1.99325 -4.08885,-2.95621 -6.28556,-3.4375 l 1.83589,2.15625 1.74252,4.46875 4.54303,16.34375 -0.65348,1.125 c 0.0633,-0.27441 0.0938,-0.53406 0.0934,-0.84375 -0.001,-0.68603 -0.14054,-1.12622 -0.37361,-1.09375 -0.035,0.005 -0.0576,0.0382 -0.0934,0.0625 -0.27716,0.18915 -0.49906,0.95533 -0.49784,1.71875 0.001,0.686 0.14055,1.09725 0.37363,1.0625 l -2.64493,4.71875 c -0.0629,0.0607 -0.0786,0.0794 -0.15538,0.15625 -1.2305,1.22873 -3.68957,2.2196 -5.28983,2.125 -1.18036,-0.0698 -1.51557,0.27099 -2.20929,2.1875 -1.21217,3.34887 -3.81977,4.6951 -9.02379,4.6875 -7.59143,-0.0111 -14.25668,-3.39169 -14.43807,-7.3125 -0.23308,-5.0391 0.8223,-15.68332 1.99143,-20.125 0.44233,-1.68035 0.71839,-3.4483 0.65349,-3.90625 -0.34263,-2.41742 0.44132,-4.2417 2.17816,-5.15625 0.97708,-0.51451 2.04669,-0.96818 2.39595,-0.96875 0.72987,-0.001 3.13774,-2.66915 4.79196,-5.15625 -0.51451,-0.319 -1.06014,-0.65151 -1.61808,-1.03125 -0.92034,-0.62639 -1.96743,-1.77549 -2.52044,-2.75 -0.52393,-0.92345 -1.46313,-2.31292 -2.08479,-3.09375 -0.46926,-0.58934 -0.98651,-1.48252 -1.52473,-2.625 l -0.12436,0.71875 c -0.15626,1.05711 -0.38628,1.44499 -1.21351,2.0625 -0.9255,0.69064 -2.68989,1.38702 -3.39172,1.34375 -0.40113,-0.0247 -1.54109,-0.72185 -2.0848,-1.25 -0.27673,-0.26869 -0.47616,-0.3464 -0.65344,-0.3125 -0.31906,0.061 -2.75448,-0.8867 -3.205,-1.25 -0.30335,-0.24465 -0.38716,-0.27998 -1.52473,-0.0625 -1.46461,0.28 -1.93373,0.17599 -2.89383,-0.625 -0.75924,-0.63345 -0.90729,-0.77854 -1.24468,-1.5 -0.4225,-0.90353 -0.3758,-2.62694 0.0934,-3.84375 0.0934,-0.24209 0.16848,-0.48744 0.15538,-0.53125 -0.035,-0.12264 0.37144,-0.59012 0.529,-0.625 0.0768,-0.0171 0.16848,-0.17013 0.2178,-0.3125 0.0493,-0.14234 0.3147,-0.48254 0.59124,-0.75 0.27672,-0.26749 0.7894,-0.79674 1.15128,-1.1875 0.52725,-0.56941 0.76719,-0.73153 1.18245,-0.8125 0.61349,-0.1196 0.67691,-0.19217 0.77791,-0.71875 0.0437,-0.21932 0.1903,-0.53238 0.28021,-0.71875 0.0895,-0.18635 0.11136,-0.39496 0.0934,-0.46875 -0.0174,-0.0738 0.13269,-0.43417 0.31121,-0.75 0.21911,-0.38807 0.36401,-0.94476 0.4356,-1.71875 0.0581,-0.62994 0.22303,-1.58419 0.37361,-2.15625 0.45127,-1.71593 0.99839,-2.52963 1.89812,-2.78125 0.93741,-0.26213 1.63318,-0.53831 1.68028,-0.6875 0.0263,-0.0822 -0.0218,-0.22816 -0.0934,-0.34375 -0.0842,-0.13342 -0.0851,-0.30373 0.0305,-0.4375 0.18506,-0.21294 0.189,-0.58903 -0.0305,-1.21875 0.16848,-0.007 0.32996,-0.0247 0.49788,-0.0312 l -1.96036,-1.90625 c -1.56029,-1.51875 -3.41394,-3.69938 -4.13847,-4.8125 l -1.33805,-2 -0.74675,1.03125 c -0.76042,1.07245 -0.9557,1.10364 -2.76941,0.28125 -1.52375,-0.6909 -3.85844,-2.36991 -3.85844,-2.78125 0,-0.21851 -0.31687,-0.7299 -0.71567,-1.15625 -0.39894,-0.42627 -0.87682,-1.47135 -1.05795,-2.28125 -0.43883,-1.96154 -3.63741,-5.78061 -7.43688,-8.9375 -0.74497,-0.61899 -1.50875,-1.63293 -1.7114,-2.25 -0.25533,-0.7773 -0.67483,-1.2298 -1.338,-1.40625 -0.82555,-0.21963 -0.96612,-0.11608 -1.15132,0.625 -0.11826,0.47264 -0.15451,1.74813 -0.0624,2.84375 0.0938,1.11485 -0.0305,2.68292 -0.2802,3.5625 -0.24531,0.86439 -0.62089,2.49322 -0.84017,3.59375 -0.38147,1.91475 -0.36226,2.05487 0.49788,3.1875 1.02723,1.3525 3.57116,7.37819 4.01404,9.5 0.16324,0.78189 0.52621,2.0264 0.80899,2.78125 0.28283,0.75479 0.59985,2.3162 0.71569,3.46875 0.11565,1.15252 1.16235,4.91743 2.30264,8.375 1.14028,3.45758 2.46683,7.70871 2.95607,9.4375 0.48928,1.72879 1.02994,3.41646 1.21357,3.75 0.18374,0.33357 0.34219,0.84482 0.34219,1.125 -5e-5,0.57426 2.14345,4.91111 3.39167,6.90625 0.45145,0.72147 1.15097,2.2091 1.55584,3.3125 0.40505,1.10336 0.8687,2.22863 1.05796,2.46875 0.18942,0.2401 0.29069,0.4375 0.2178,0.4375 -0.0733,3e-5 0.8316,0.983 1.99147,2.21875 2.88538,3.07394 3.83618,5.00427 4.69861,9.4375 0.90663,4.6607 0.73021,7.34909 -0.65345,11.71875 -1.30579,4.12365 -2.07131,4.68671 -1.61808,1.1875 0.55441,-4.2802 0.38366,-7.46452 -0.49784,-9.15625 -1.12862,-2.16598 -1.63845,-1.74322 -1.49359,1.21875 0.11955,2.45232 -0.2047,4.0377 -1.61808,7.65625 -0.39719,1.0168 -0.95338,1.77245 -1.30688,1.84375 -0.54655,0.11031 -0.55589,-0.0674 -0.28022,-1.75 0.6987,-4.26209 -0.1868,-9.43021 -1.68031,-9.90625 -0.88712,-0.28279 -1.38863,0.40263 -1.1824,1.59375 0.0829,0.48021 0.25185,1.42145 0.37318,2.09375 0.17765,0.9832 -0.009,1.60491 -0.87123,3.09375 -1.04095,1.79303 -1.85156,2.48425 -2.33377,2 -0.12826,-0.12897 -0.0912,-0.46681 0.0934,-0.71875 1.68666,-2.30342 1.63869,-2.04477 0.87129,-4 -0.74043,-1.88661 -2.03684,-3.875 -2.52049,-3.875 -0.15538,0 -0.24878,0.92148 -0.24878,2.03125 0,1.98382 -0.65667,3.56249 -1.46249,3.5625 -0.35266,0 -0.2968,-0.65551 0.24879,-2.875 0.18026,-0.73274 -0.0833,-1.48363 -1.15127,-3.34375 -1.7506,-3.04939 -3.38169,-7.08787 -3.92072,-9.71875 -0.23045,-1.1253 -0.55454,-2.31787 -0.71568,-2.625 -0.16499,-0.3147 -0.12436,-1.55514 0.0934,-2.875 l 0.37362,-2.34375 -1.43136,-2.875 c -1.36419,-2.69987 -5.92529,-12.93243 -6.09884,-13.6875 -0.044,-0.1921 -0.26799,-0.70542 -0.49788,-1.125 -0.23002,-0.41955 -0.4046,-0.93378 -0.4046,-1.15625 0,-0.22243 -0.33565,-0.79619 -0.71568,-1.28125 -0.37973,-0.48507 -0.6022,-1.01798 -0.49784,-1.1875 0.10432,-0.1695 0.0594,-0.28125 -0.1244,-0.28125 -0.18375,2e-5 -0.50194,-0.54054 -0.71568,-1.15625 -0.21387,-0.61575 -0.6685,-1.51121 -0.99572,-2 -0.32735,-0.48873 -0.77831,-1.36122 -0.99576,-1.9375 -0.43918,-1.1638 -3.02478,-7.60851 -3.92068,-9.78125 -0.316,-0.76677 -1.20086,-2.72565 -1.99143,-4.375 -0.79054,-1.64937 -1.55012,-3.66338 -1.68032,-4.4375 -0.39414,-2.34238 -0.52006,-11.2939 -0.18681,-13.34375 0.17197,-1.05651 0.38496,-3.28767 0.49788,-4.90625 0.11261,-1.61857 0.28283,-3.01478 0.34219,-3.125 0.41508,-0.77104 -0.55645,-5.09574 -1.71144,-7.625 l -1.338,-2.875 0.529,-3.25 c 0.28502,-1.76976 0.47597,-3.91684 0.4356,-4.78125 -0.0807,-1.73008 -0.8612,-4.69688 -1.64916,-6.1875 -0.75326,-1.42486 -1.40827,-6.45595 -1.08908,-8.40625 0.14971,-0.91577 0.30859,-2.35435 0.34219,-3.21875 0.0349,-0.86442 0.3841,-2.74685 0.80904,-4.1875 1.20767,-4.09517 1.76745,-6.36408 1.77364,-7.3125 0.009,-1.45584 2.05346,-5.36084 3.39168,-6.46875 1.47592,-1.22187 3.92072,-4.90911 3.92072,-5.90625 -4e-5,-0.77893 0.9512,-1.96877 1.5558,-1.96875 0.8629,10e-6 2.89767,-1.80145 4.16963,-3.65625 1.50238,-2.19077 1.80473,-3.50134 2.14705,-9.625 0.22347,-3.99423 -0.34045,-9.00728 -1.18245,-10.5 -0.27541,-0.48816 -1.32687,-1.31435 -2.33371,-1.84375 -1.0069,-0.52941 -1.95212,-1.29564 -2.14704,-1.71875 -0.84296,-1.82969 -1.15137,-2.77801 -1.15132,-3.6875 0,-0.53359 -0.40068,-2.1362 -0.9024,-3.5625 -0.49374,-1.40375 -0.75763,-2.24352 -0.87124,-3.8125 l -0.9024,0.0625 c 0.009,-0.0695 0.0175,-0.12053 0.0306,-0.1875 0.49893,-2.65901 0.47492,-2.60873 0.1244,-4.625 -0.18419,-1.06085 -0.35354,-1.95955 -0.37318,-2 -0.0672,-0.13595 -0.71193,-4.51072 -0.87128,-5.875 -0.15408,-1.32069 -0.0436,-2.7371 0.3112,-3.90625 0.0912,-0.30264 0.19205,-0.85733 0.24879,-1.1875 0.0572,-0.33017 0.25446,-0.70606 0.4046,-0.84375 0.38017,-0.3484 0.99581,-1.49904 0.96465,-1.78125 -0.0262,-0.22695 1.21718,-1.87838 1.43135,-1.90625 0.0585,-0.008 0.41771,-0.3934 0.809,-0.875 0.39151,-0.48163 0.78761,-0.89535 0.87128,-0.90625 0.0838,-0.0109 0.21736,-0.16734 0.24879,-0.34375 0.0305,-0.1764 0.13661,-0.32506 0.28021,-0.34375 0.14316,-0.0187 0.49496,-0.24782 0.77788,-0.5 0.32473,-0.28946 0.72096,-0.48273 1.08908,-0.53125 0.3208,-0.0423 0.7698,-0.21653 0.99576,-0.375 0.22609,-0.15847 0.83854,-0.42351 1.338,-0.625 0.49949,-0.2015 1.24411,-0.59946 1.68027,-0.875 0.53359,-0.33706 1.26114,-0.63275 2.17817,-0.84375 0.74968,-0.17245 2.29215,-0.57279 3.45395,-0.875 1.22824,-0.3195 3.12919,-0.63584 4.51188,-0.8125 1.46688,-0.18741 2.46213,-0.28317 3.48507,-0.15625 1.02296,0.1269 2.06957,0.43576 3.734,1 1.26686,0.42951 2.40444,0.79638 2.52044,0.78125 0.11604,-0.0152 0.61351,0.13293 1.15128,0.3125 0.53778,0.17956 1.17721,0.33938 1.40029,0.40625 0.4719,0.14151 0.94055,0.40034 2.11591,1.0625 0.83864,0.47243 2.32076,1.81476 2.36484,2.15625 0.0131,0.0965 0.13574,0.32139 0.28021,0.53125 0.52718,0.76734 1.09598,1.78095 1.1202,1.96875 0.0131,0.10603 0.34045,0.66975 0.71568,1.25 0.37536,0.5802 0.7011,1.16809 0.71568,1.28125 0.0131,0.11312 0.19074,0.48075 0.40461,0.84375 0.21386,0.36301 0.46366,0.95503 0.56012,1.3125 0.24486,0.90748 1.30613,3.23913 1.46248,3.21875 0.0711,-0.009 0.17938,0.2336 0.21779,0.53125 0.0764,0.59221 0.34001,0.97118 0.9646,1.46875 0.28938,0.23068 0.34264,0.42024 0.3112,0.6875 -0.0262,0.21725 0.0218,0.41713 0.12436,0.4375 0.099,0.0194 0.27586,0.38448 0.37363,0.8125 0.14621,0.64178 0.17109,0.93322 -0.0934,1.71875 -0.47882,1.42194 -1.32234,2.49978 -2.17817,2.84375 -0.18987,0.74885 -0.36925,1.81184 -0.4356,3.3125 -0.0218,0.46518 -0.0218,0.97701 -0.0305,1.53125 -0.0446,2.33444 -0.24486,4.52097 -0.46675,4.9375 -0.6565,1.23197 -0.50666,4.30708 0.28021,5.5 1.237,1.87592 0.96622,4.37746 -0.99577,8.71875 -0.43428,0.96044 -1.17431,2.87412 -1.61803,4.21875 -1.35882,4.11804 -2.12482,5.61614 -3.42284,6.65625 -0.69346,0.5557 -1.24895,1.32987 -1.24464,1.71875 0.0131,1.05612 1.18245,3.35915 2.11592,4.1875 1.72213,1.52824 7.22593,4.30135 11.07747,5.53125 2.19955,0.70237 5.05781,1.89813 6.3478,2.65625 2.46544,1.44889 6.74608,3.16607 9.24159,3.75 l 1.46248,0.34375 0,-1.03125 c 0,-0.56946 0.38148,-2.37039 0.87128,-4.03125 0.48959,-1.66088 1.07795,-3.59928 1.27576,-4.28125 0.43211,-1.48944 0.23177,-4.50231 -0.56008,-9.21875 -0.32692,-1.94762 -0.48627,-4.18608 -0.37362,-5.0625 0.14491,-1.12578 -0.003,-2.18648 -0.52899,-3.6875 -0.40418,-1.15255 -1.0636,-3.01013 -1.43136,-4.125 -0.36795,-1.11486 -1.11602,-2.72473 -1.71141,-3.59375 -0.7722,-1.12715 -1.05879,-1.84167 -0.93348,-2.5 0.12306,-0.64658 -0.0681,-1.23861 -0.65348,-1.9375 -1.01802,-1.21503 -1.05307,-2.15714 -0.12436,-2.65625 0.87499,-0.47029 0.87499,-0.91407 0,-2.03125 -0.90982,-1.1616 -0.88198,-1.68773 0.15538,-2.59375 0.73222,-0.63938 0.8224,-0.94961 0.65344,-2.1875 -0.23962,-1.7563 0.23002,-2.26707 2.17816,-2.34375 l 1.36916,-0.0312 0.0624,-2.34375 c 0.0174,-1.26666 0.035,-2.46418 0.0934,-2.65625 0.0568,-0.19207 0.0131,-2.43805 -0.12436,-5.03125 -0.13574,-2.5932 -0.32517,-7.93716 -0.40461,-11.875 -0.15931,-7.91564 -0.63392,-11.42032 -2.0226,-14.34375 -1.02906,-2.16645 -1.09584,-2.52597 -0.52895,-3.4375 0.31687,-0.50995 0.29898,-0.81706 -0.15582,-1.46875 -0.83195,-1.19295 -0.83078,-10.46696 0,-12.4375 0.44359,-1.05234 0.56225,-2.48589 0.56007,-6.5625 -9.6e-4,-2.88133 0.13356,-5.52965 0.31121,-5.875 0.17764,-0.34534 0.67622,-0.76794 1.1202,-0.9375 0.21648,-0.0827 0.59294,-0.10016 1.08908,-0.0937 0.2789,0.004 0.62096,0.0348 0.9646,0.0625 l -1.95664,-512.5493602 3.95179,0 5.4e-4,-1.5e-4 0,-5e-5 0.003,0 z M 128.37572,618.75281 c -0.22696,0.0137 -0.57828,0.29775 -1.08908,0.84375 -0.85421,0.91321 -0.68792,1.06014 0.62236,0.53125 0.43036,-0.17372 0.77788,-0.54941 0.77792,-0.84375 0,-0.2893 -0.0882,-0.45916 -0.21779,-0.5 -0.0262,-0.009 -0.0607,-0.0332 -0.0934,-0.0312 l -9e-5,-5e-5 8e-5,0 z m 51.56012,25.78125 c -0.0955,-0.005 -0.15538,-0.0125 -0.15538,0.0312 0,1.08389 1.33773,3.87781 2.45821,5.15625 2.15589,2.45968 4.0222,5.97054 5.04087,9.5 0.52669,1.82482 1.26737,4.23925 1.6492,5.34375 0.38192,1.10448 0.73902,2 0.809,2 0.29156,2e-5 0.11124,-1.56162 -0.40462,-3.34375 -0.43515,-1.50349 -0.47072,-2.26903 -0.1868,-3.5625 0.19816,-0.902 0.32648,-2.41454 0.3112,-3.375 -0.0349,-2.29556 0.3112,-7.33807 0.56013,-8.125 0.16803,-0.53216 -0.25927,-0.72427 -3.11169,-1.40625 -1.82989,-0.43752 -4.18971,-1.19528 -5.22755,-1.65625 -0.77849,-0.34573 -1.45506,-0.54877 -1.74257,-0.5625 l 0,5e-5 z m -18.42098,73.8125 -0.40461,0.78125 c -0.21648,0.41819 -0.34394,0.82382 -0.3112,0.9375 0.0864,0.30014 -0.009,0.86638 -0.28021,1.71875 -0.43683,1.37648 -0.47898,1.73462 -0.18681,2.9375 0.14927,0.61357 0.30204,1.12724 0.3112,1.125 0.12878,-0.0311 0.59854,-0.70668 0.809,-1.15625 0.14927,-0.31881 0.36706,-0.64487 0.49788,-0.71875 0.13094,-0.0739 0.29069,-0.17149 0.3112,-0.21875 0.13182,-0.30263 0.67627,-0.79507 1.05797,-0.9375 0.24397,-0.091 0.46431,-0.20214 0.65342,-0.375 -0.17414,-0.29162 -0.33345,-0.60646 -0.56007,-0.9375 -0.64776,-0.94549 -0.98873,-1.83114 -1.05795,-2.8125 -0.10383,-0.0454 -0.24181,-0.13344 -0.31122,-0.15625 l -0.529,-0.1875 4e-4,0 z m 3.98292,6.875 c -0.18942,0.15057 -0.37886,0.29169 -0.46676,0.40625 -0.12267,0.16019 -0.30816,0.31934 -0.43559,0.34375 -0.12787,0.0244 -0.31864,0.24649 -0.4356,0.46875 -0.11747,0.22226 -0.36534,0.51072 -0.52901,0.65625 -0.24006,0.21364 -0.25446,0.25083 -0.0624,0.21875 0.37187,-0.062 1.20845,0.30649 1.86699,0.8125 0.43429,0.33368 1.03344,0.9519 1.52473,1.5625 -0.27106,-0.81253 -0.53635,-1.64192 -0.77793,-2.5 -0.20514,-0.72948 -0.46942,-1.42077 -0.68455,-1.96875 l 1.2e-4,0 z m 5.22759,14.75 c -0.51096,0.24935 -0.99349,0.45158 -1.43136,0.59375 l 1.43136,-0.59375 z m 7.99696,5.09375 c 0.134,0.17187 0.3016,0.36136 0.52896,0.59375 0.81894,0.8364 1.49975,1.02958 2.52044,0.78125 0.15058,-0.0366 0.2453,-0.0438 0.37361,-0.0625 -1.17109,-0.31402 -2.27217,-0.73895 -3.42279,-1.3125 l -2.2e-4,0 z m 4.57412,1.5625 c 0.0764,0.0935 0.16935,0.20556 0.21779,0.34375 0.16892,0.48214 0.58086,0.87557 0.93352,0.875 0.28982,-4.7e-4 0.41028,-0.28813 0.4356,-0.9375 -0.54785,-0.0702 -1.07922,-0.17869 -1.58696,-0.28125 l 5e-5,0 z m -1.89813,1.84375 c -0.28457,-0.0559 -0.67748,0.17832 -1.40023,0.625 -1.05779,0.65374 -1.04373,0.6899 0.65344,1.03125 0.97211,0.19554 1.8189,0.39742 1.89811,0.4375 0.0794,0.04 -0.10655,-0.42099 -0.4046,-1.03125 -0.31819,-0.65114 -0.46218,-1.00662 -0.7468,-1.0625 l 8e-5,0 z m 10.98416,8.65625 c -0.0794,-0.0228 -0.20514,0.002 -0.28022,0 -1.12242,-0.0278 -1.69908,2.29267 -2.08479,8.1875 -0.17983,2.74868 -0.44507,5.5939 -0.59124,6.28125 -0.21081,0.99117 -0.0585,1.25136 0.77792,1.25 0.70403,-10e-4 1.18733,0.44879 1.40023,1.375 0.39021,1.69682 0.5916,1.69988 1.80477,0.15625 1.67984,-2.13742 1.78141,-4.22192 0.46675,-9.59375 -0.29898,-1.22105 -0.55121,-3.39761 -0.56012,-4.8125 -0.0131,-2.02816 -0.19772,-2.63347 -0.93348,-2.84375 l 1.8e-4,0 z m 14.18915,21.3125 c -0.20165,2.9e-4 -0.34045,0.53655 -0.34219,1.1875 -0.003,0.65092 -0.099,1.65804 -0.21781,2.25 -0.15537,0.77588 -0.10694,0.90331 0.15582,0.4375 0.20034,-0.35538 0.40723,-1.36214 0.52901,-2.25 0.12267,-0.89249 0.0781,-1.62532 -0.12436,-1.625 l -4.7e-4,0 z m -6.75232,1.9375 c -0.0437,-0.005 -0.12917,0.10135 -0.24878,0.3125 -0.22784,0.40113 -0.47497,3.21836 -0.56008,6.25 l -0.15582,5.5 0.3422,-4.8125 c 0.17502,-2.63782 0.42205,-5.39249 0.56011,-6.1875 0.12085,-0.69738 0.134,-1.05406 0.062,-1.0625 l 3.7e-4,0 z m 2.33377,14.40625 c -0.10175,0.0502 -0.18768,0.12033 -0.28022,0.15625 l -0.0305,1.15625 c -0.19031,4.49685 -0.19248,5.51952 -0.0305,7.375 0.17764,2.0432 0.10253,3.11348 -0.34219,4.90625 -0.2082,0.83905 -0.32648,1.6542 -0.31121,2.4375 0.0131,0.65091 0.0305,1.48721 0.0305,1.84375 7.5e-4,0.35653 0.14229,1.49703 0.31121,2.53125 0.16891,1.03423 0.48706,2.46545 0.68455,3.15625 l 0.34221,1.25 -0.1554,-1.84375 c -0.0694,-1.00912 -0.0576,-2.15512 -0.0305,-2.5625 0.0263,-0.40736 0.0218,-1.11645 0.0305,-1.59375 0.0218,-0.90965 0.062,-1.236 0,-3.8125 -0.0437,-1.73295 -0.0392,-2.30294 0,-3.21875 0.0131,-0.33172 -0.004,-0.91454 0,-1.28125 0.004,-0.36672 0.0555,-0.7317 0.0934,-0.8125 0.27191,-0.57986 0.31119,-4.94959 0.0624,-6.1875 -0.0672,-0.33454 -0.11916,-0.92518 -0.12436,-1.28125 -0.004,-0.35611 -0.0951,-1.30934 -0.2178,-2.125 l -0.0305,-0.0937 -4e-5,-5e-5 -0.002,0 z m 174.53272,124.5625 4e-5,0 -4e-5,0 z"
     style="fill:url(#radialGradient3550);fill-opacity:1" />
</svg>
