<?xml version="1.0" encoding="UTF-8" standalone="no"?>
<!-- Created with Inkscape (http://www.inkscape.org/) -->
<svg
   xmlns:dc="http://purl.org/dc/elements/1.1/"
   xmlns:cc="http://creativecommons.org/ns#"
   xmlns:rdf="http://www.w3.org/1999/02/22-rdf-syntax-ns#"
   xmlns:svg="http://www.w3.org/2000/svg"
   xmlns="http://www.w3.org/2000/svg"
   xmlns:xlink="http://www.w3.org/1999/xlink"
   xmlns:sodipodi="http://sodipodi.sourceforge.net/DTD/sodipodi-0.dtd"
   xmlns:inkscape="http://www.inkscape.org/namespaces/inkscape"
   version="1.0"
   width="1052.3622"
   height="744.09448"
   id="svg2"
   sodipodi:version="0.32"
   inkscape:version="0.46+devel, revision 19938"
   sodipodi:docname="hj.svg"
   inkscape:output_extension="org.inkscape.output.svg.inkscape"
   inkscape:export-filename="D:\MicroStock\NEW_PHOTO\Climberbis28ago08marco.png"
   inkscape:export-xdpi="598"
   inkscape:export-ydpi="598">
  <metadata
     id="metadata37">
    <rdf:RDF>
      <cc:Work
         rdf:about="">
        <dc:format>image/svg+xml</dc:format>
        <dc:type
           rdf:resource="http://purl.org/dc/dcmitype/StillImage" />
        <dc:title></dc:title>
      </cc:Work>
    </rdf:RDF>
  </metadata>
  <sodipodi:namedview
     inkscape:window-height="750"
     inkscape:window-width="1276"
     inkscape:pageshadow="2"
     inkscape:pageopacity="0.0"
     guidetolerance="10.0"
     gridtolerance="10.0"
     objecttolerance="10.0"
     borderopacity="1.0"
     bordercolor="#666666"
     pagecolor="#ffffff"
     id="base"
     showgrid="false"
     showguides="true"
     inkscape:guide-bbox="true"
     inkscape:zoom="0.38503175"
     inkscape:cx="261.36277"
     inkscape:cy="471.47871"
     inkscape:window-x="0"
     inkscape:window-y="14"
     inkscape:current-layer="svg2" />
  <defs
     id="defs4">
    <linearGradient
       id="linearGradient2731">
      <stop
         id="stop2733"
         offset="0"
         style="stop-color:#ff1100;stop-opacity:1;" />
      <stop
         style="stop-color:#ef310c;stop-opacity:1;"
         offset="0.25"
         id="stop2735" />
      <stop
         style="stop-color:#580e09;stop-opacity:1;"
         offset="0.55853963"
         id="stop2737" />
      <stop
         id="stop2739"
         offset="0.69245434"
         style="stop-color:#300704;stop-opacity:1;" />
      <stop
         id="stop2741"
         offset="1"
         style="stop-color:#000000;stop-opacity:1" />
    </linearGradient>
    <inkscape:perspective
       sodipodi:type="inkscape:persp3d"
       inkscape:vp_x="0 : 372.04724 : 1"
       inkscape:vp_y="0 : 1000 : 0"
       inkscape:vp_z="1052.3622 : 372.04724 : 1"
       inkscape:persp3d-origin="526.18109 : 248.03149 : 1"
       id="perspective43" />
    <linearGradient
       id="linearGradient3291">
      <stop
         id="stop3293"
         offset="0"
         style="stop-color:#ffffff;stop-opacity:1" />
      <stop
         style="stop-color:#ffffff;stop-opacity:1;"
         offset="0.09232671"
         id="stop3552" />
      <stop
         id="stop3297"
         offset="0.25865582"
         style="stop-color:#ffc800;stop-opacity:1" />
      <stop
         id="stop3299"
         offset="1"
         style="stop-color:#f5000c;stop-opacity:1;" />
    </linearGradient>
    <linearGradient
       id="linearGradient5933">
      <stop
         style="stop-color:#ff1100;stop-opacity:1;"
         offset="0"
         id="stop5935" />
      <stop
         id="stop3318"
         offset="0.25"
         style="stop-color:#ef310c;stop-opacity:1;" />
      <stop
         id="stop3314"
         offset="0.5"
         style="stop-color:#580e09;stop-opacity:1;" />
      <stop
         style="stop-color:#300704;stop-opacity:1;"
         offset="0.75"
         id="stop3316" />
      <stop
         style="stop-color:#000000;stop-opacity:1"
         offset="1"
         id="stop5937" />
    </linearGradient>
    <radialGradient
       inkscape:collect="always"
       xlink:href="#linearGradient3291"
       id="radialGradient2435"
       gradientUnits="userSpaceOnUse"
       gradientTransform="matrix(1.5257417,-0.0429423,-0.00680019,1.3701957,-68.39938,65.95085)"
       cx="236.86067"
       cy="208.35507"
       fx="236.86067"
       fy="208.35507"
       r="526.84064" />
    <radialGradient
       inkscape:collect="always"
       xlink:href="#linearGradient2731"
       id="radialGradient3542"
       cx="272.53806"
       cy="435.8616"
       fx="272.53806"
       fy="435.8616"
       r="168.5433"
       gradientTransform="matrix(-2.9348164,-0.58921065,-0.63468455,2.3835856,1397.099,-549.95662)"
       gradientUnits="userSpaceOnUse" />
    <radialGradient
       inkscape:collect="always"
       xlink:href="#linearGradient5933"
       id="radialGradient3550"
       cx="293.5347"
       cy="460.02502"
       fx="293.5347"
       fy="460.02502"
       r="131.77505"
       gradientTransform="matrix(-2.5943646,-0.00370404,-4.3681832e-4,3.4201386,1078.7132,-1209.4425)"
       gradientUnits="userSpaceOnUse" />
  </defs>
  <rect
     id="rect4129"
     style="fill:url(#radialGradient2435);fill-opacity:1;fill-rule:nonzero;stroke:none"
     y="-0.44238606"
     x="0.56200576"
     height="750.94513"
     width="1053.9581" />
  <path
     id="path2430"
     style="fill:#ffffff;fill-opacity:1;fill-rule:evenodd;stroke:none"
     d="m 427.1426,335.18668 c 0,76.18343 -61.41013,137.94225 -137.16338,137.94225 -75.7533,0 -137.16343,-61.75882 -137.16343,-137.94225 0,-76.18341 61.41013,-137.94227 137.16343,-137.94227 75.75325,0 137.16338,61.75886 137.16338,137.94227 l 0,0 z" />
  <path
     style="fill:url(#radialGradient3542);fill-opacity:1"
     d="M -0.57757312,-0.21815386 -1.1950433,375.40501 -1.8124926,751.02821 76.40053,751.16173 c 75.6739,0.11905 78.21097,0.0634 78.21309,-1.20221 0.002,-1.42243 -2.86621,-7.55138 -4.36803,-9.35106 -0.51269,-0.6145 -0.91618,-1.80032 -0.91477,-2.6495 0.002,-0.84926 -0.29609,-2.10761 -0.64034,-2.78302 -0.97166,-1.90655 0.17905,-20.21503 1.23492,-33.66385 0.0954,-0.0383 0.20987,-0.0749 0.27459,-0.11132 0.31405,-0.17684 2.02607,-0.78947 2.17259,-0.77926 0.0424,0.003 0.32712,-0.087 0.64036,-0.20038 0.3131,-0.11338 0.86118,-0.21181 1.21205,-0.22264 0.5865,-0.0179 0.64648,-0.008 0.70897,0.24491 0.10654,0.43184 0.69734,0.969 1.21208,1.09095 0.4874,0.11552 1.93175,-0.0355 1.94388,-0.20038 0.002,-0.0513 0.15168,-0.0579 0.34306,-0.0445 0.51563,0.0358 0.95013,-0.20306 1.60086,-0.84605 0.8646,-0.8543 1.12083,-1.34166 1.34929,-2.67173 0.10995,-0.64057 0.33491,-1.55598 0.50312,-2.02607 0.16815,-0.47002 0.30506,-1.00445 0.32015,-1.20228 0.015,-0.19774 0.129,-0.52661 0.25147,-0.71246 0.96109,-1.45789 1.07824,-1.98045 1.30359,-5.56611 l 0.16003,-2.36002 0.3888,-0.66794 c 0.22102,-0.37351 0.71904,-1.0742 1.09768,-1.55851 0.37875,-0.48436 0.7053,-0.92979 0.70899,-0.97963 0.002,-0.0498 0.17607,-0.17536 0.41163,-0.28944 0.23707,-0.11484 0.72656,-0.56331 1.09772,-1.02416 0.36884,-0.45792 0.77133,-0.94481 0.89193,-1.04643 0.27811,-0.23469 0.70026,-0.75446 1.05199,-1.3136 0.28645,-0.45539 1.06287,-1.06487 1.32642,-1.04643 0.0842,0.006 0.15616,-0.0383 0.16002,-0.0891 0.002,-0.0508 0.29738,-0.33725 0.64036,-0.64567 0.87505,-0.78647 1.58396,-1.99774 1.76091,-3.02796 0.13478,-0.78398 0.71229,-2.57771 0.98342,-2.98343 0.0719,-0.10759 0.15595,-0.23301 0.16003,-0.28944 0.002,-0.0564 0.24925,-0.462 0.54885,-0.91284 0.29961,-0.45086 0.54301,-0.89975 0.54886,-0.97964 0.007,-0.0799 0.11318,-0.209 0.22873,-0.28943 0.11552,-0.0804 0.39631,-0.44975 0.61749,-0.82379 0.22101,-0.37403 0.50209,-0.83931 0.64032,-1.02416 0.1382,-0.18484 0.34828,-0.65492 0.45741,-1.06869 0.20173,-0.76522 0.6791,-2.15271 0.91474,-2.62721 0.0714,-0.14394 0.13948,-0.50019 0.16002,-0.77925 0.0193,-0.27911 0.15104,-0.72682 0.27429,-1.0019 0.12322,-0.27505 0.2823,-0.73159 0.36593,-1.0019 0.0839,-0.27029 0.36287,-0.83971 0.61747,-1.29134 1.03149,-1.82937 1.89678,-4.185 2.19547,-5.90007 0.30314,-1.74094 1.06553,-4.33793 1.50935,-5.23214 0.23901,-0.48162 0.55166,-1.13402 0.70895,-1.44719 0.72039,-1.43422 1.11668,-2.48464 1.39504,-3.71816 0.1656,-0.73395 0.47637,-1.81349 0.68607,-2.38229 0.20987,-0.5688 0.47552,-1.39034 0.59459,-1.80342 0.11896,-0.41309 0.28006,-0.86872 0.36595,-1.04643 0.27042,-0.56052 0.90371,-2.83609 1.57797,-5.6329 0.43123,-1.78861 0.46866,-1.94302 0.45737,-3.51778 l 0,-1.6921 0.32015,-0.26717 c 0.18569,-0.16349 0.58244,-0.48266 0.89192,-0.66793 l 0.57171,-0.3117 0.20601,0.57887 c 0.11703,0.31726 0.27685,1.22958 0.34302,2.04833 0.0661,0.81875 0.16323,1.6505 0.20602,1.84795 0.0424,0.19745 0.11317,0.66435 0.16002,1.02416 0.0468,0.35979 0.14377,1.15939 0.22873,1.78115 0.0885,0.64634 0.12473,1.87508 0.0913,2.84985 -0.0321,0.93775 -0.0149,1.93208 0.0225,2.22644 0.0383,0.29439 0.0817,0.90369 0.0914,1.35813 0.0447,2.0903 0.12792,2.88629 0.59462,4.85365 0.2749,1.15886 0.56777,2.53122 0.64034,3.07249 0.0725,0.54129 0.18356,1.18316 0.2515,1.42492 0.18055,0.64072 0.47722,2.36715 0.50313,2.98344 0.0128,0.29255 0.0794,1.01555 0.13734,1.60304 0.058,0.58747 0.11423,1.74692 0.16001,2.56041 0.0456,0.81351 0.11554,1.64481 0.13735,1.84794 0.0391,0.36382 0.0364,0.35614 -0.52599,0.3785 -0.62739,0.0249 -1.04382,0.2438 -1.60085,0.82378 -0.34712,0.36141 -0.53943,0.86229 -0.77755,2.07059 -0.0464,0.23614 -0.21265,0.54862 -0.36593,0.71247 -0.31407,0.33641 -0.45215,1.27463 -0.27459,1.91474 0.1427,0.51366 1.08693,1.03124 1.94389,1.09095 0.71391,0.0497 0.65333,-0.0351 0.77755,1.53625 0.1151,1.45778 0.46465,2.9107 0.86904,3.60684 0.2011,0.34612 0.54024,0.9592 0.73182,1.38039 0.19146,0.42119 0.4275,0.94911 0.52599,1.15775 0.0984,0.20866 0.25278,0.68636 0.36593,1.04643 0.43003,1.37014 0.67879,1.87376 0.93762,1.95927 0.38604,0.12752 0.59261,0.0223 0.73185,-0.3785 0.12706,-0.3656 0.002,-1.08991 -0.27459,-1.49171 -0.0702,-0.10213 -0.21009,-0.47294 -0.2746,-0.80152 -0.0642,-0.32858 -0.16046,-0.68939 -0.22872,-0.82379 -0.0683,-0.13443 -0.17264,-0.67817 -0.2515,-1.20228 -0.0789,-0.52408 -0.30666,-1.49932 -0.48025,-2.15964 -0.32434,-1.23267 -0.59453,-3.4997 -0.45739,-3.78496 0.0424,-0.088 0.30285,-0.15526 0.57175,-0.17811 0.36162,-0.0308 0.57846,-0.14817 0.86904,-0.44529 l 0.38877,-0.42303 0.0458,0.44529 c 0.0193,0.23744 0.0638,0.62333 0.0914,0.86832 0.0289,0.245 0.0257,1.02405 -0.0225,1.73662 -0.10526,1.56472 -0.0107,1.88965 0.75468,2.07059 0.60578,0.14357 1.08741,-0.10112 1.34928,-0.69019 0.29128,-0.65489 0.38137,-2.7479 0.18291,-3.98534 -0.13798,-0.8603 -0.14504,-1.16242 -0.0225,-1.38039 0.0853,-0.15245 0.19767,-0.68283 0.22874,-1.18002 0.0732,-1.16909 -0.26401,-1.96081 -1.00629,-2.42682 -0.32737,-0.20552 -0.56324,-0.46673 -0.70893,-0.80152 -0.28679,-0.65886 -0.60626,-3.23056 -0.526,-4.36383 0.0686,-0.9731 -0.0413,-3.32917 -0.1829,-3.65136 -0.049,-0.11135 -0.10869,-0.41144 -0.13734,-0.66794 -0.0289,-0.25646 -0.23739,-0.94126 -0.48026,-1.51398 -0.58761,-1.3854 -0.88157,-2.39862 -0.93762,-3.47325 -0.13371,-2.56086 -0.20752,-3.49245 -0.36593,-4.54194 -0.26434,-1.75363 -0.75965,-3.95329 -1.05199,-4.631 -0.14398,-0.33383 -0.2637,-0.74945 -0.25148,-0.91284 0.0128,-0.16339 -0.0107,-0.28537 -0.0686,-0.28944 -0.0584,-0.004 -0.18547,-0.18551 -0.2515,-0.40076 -0.066,-0.21531 -0.21071,-0.65646 -0.34304,-0.95737 -0.1322,-0.30094 -0.35428,-1.21006 -0.50312,-2.02606 -0.29703,-1.62804 -0.81367,-3.81256 -1.12057,-4.72006 -0.10804,-0.31946 -0.21654,-0.83075 -0.22871,-1.13549 l -0.0225,-0.55661 1.37212,-0.75699 c 0.75146,-0.41905 1.55932,-0.91863 1.80671,-1.11322 0.24732,-0.19461 0.68251,-0.49539 0.96049,-0.66793 1.85145,-1.14891 3.36617,-2.99685 4.50526,-5.45479 0.14525,-0.314 0.38017,-0.68737 0.50312,-0.82378 0.20495,-0.22719 1.20951,-1.88736 2.10397,-3.45099 0.1996,-0.34888 0.38093,-0.69488 0.38881,-0.80152 0.007,-0.10665 0.0413,-0.20011 0.0914,-0.20038 0.0499,-2.5e-4 0.55542,0.0112 1.12058,0.0222 0.92487,0.0181 1.07858,-0.007 1.34929,-0.26717 0.16558,-0.159 0.25888,-0.37067 0.22874,-0.46756 -0.0681,-0.21813 0.35658,-1.57901 0.61747,-1.98153 0.10589,-0.16327 0.38141,-0.72906 0.59459,-1.26907 0.2133,-0.54003 0.50487,-1.17911 0.68609,-1.40266 0.44377,-0.54725 1.28812,-1.92757 1.30355,-2.13739 0.0128,-0.16927 0.54789,-1.04528 1.07484,-1.78115 0.15467,-0.21608 0.48955,-0.69821 0.75472,-1.06869 0.77929,-1.08887 1.05804,-1.38405 1.98961,-2.20418 0.48579,-0.42769 1.03134,-1.02433 1.2121,-1.3136 0.18056,-0.28928 0.37557,-0.53847 0.43448,-0.55661 0.20944,-0.0647 1.62247,-1.8987 1.71523,-2.22645 0.052,-0.18345 0.14761,-0.3711 0.20601,-0.40076 0.16045,-0.0817 0.66671,-1.05001 0.68606,-1.3136 0.0107,-0.12744 0.1812,-0.46858 0.36593,-0.75699 0.18483,-0.28839 0.39648,-0.76753 0.50312,-1.04643 0.1367,-0.35785 0.28581,-0.50136 0.45737,-0.51208 0.51743,-0.0323 1.41403,-1.15907 1.62372,-2.07059 0.12065,-0.52389 0.1305,-0.56027 0.50313,-0.53435 0.21462,0.015 0.55832,-0.0207 0.75467,-0.0667 0.1964,-0.0461 0.59192,-0.083 0.89193,-0.0891 l 0.526,-0.0222 0.36592,0.91284 c 0.37929,0.97178 0.70535,1.31513 1.6466,1.80342 1.05281,0.54614 2.89059,1.00677 3.56758,0.89058 0.38701,-0.0664 1.38808,-0.82777 1.80668,-1.3804 0.21308,-0.28115 0.41397,-0.41335 0.5946,-0.40076 0.3249,0.0227 2.4502,-1.12561 2.81295,-1.51398 0.24444,-0.26154 0.35033,-0.28114 1.50937,-0.20038 1.49211,0.10394 1.90831,-0.0378 2.6757,-0.89057 0.6068,-0.67431 0.69357,-0.84736 0.86903,-1.55851 0.21976,-0.89062 -0.17264,-2.47489 -0.89192,-3.56231 -0.14311,-0.21634 -0.25469,-0.42521 -0.25147,-0.46756 0.0107,-0.11852 -0.47891,-0.54095 -0.64037,-0.55661 -0.0789,-0.008 -0.19574,-0.13933 -0.27457,-0.26717 -0.0787,-0.12786 -0.40398,-0.4031 -0.73183,-0.6234 -0.32781,-0.22031 -0.95762,-0.65318 -1.39503,-0.97964 -0.63746,-0.47568 -0.92595,-0.63698 -1.34928,-0.66793 -0.62558,-0.0457 -0.72626,-0.0973 -0.93764,-0.57888 -0.0882,-0.2006 -0.26144,-0.50327 -0.3888,-0.66793 -0.12729,-0.16463 -0.23064,-0.35204 -0.22872,-0.42302 0.002,-0.071 -0.19253,-0.36952 -0.43449,-0.64567 -0.29739,-0.3393 -0.56488,-0.8423 -0.80044,-1.55851 -0.19189,-0.58294 -0.5537,-1.48498 -0.82331,-2.0038 -0.80858,-1.55622 -1.51336,-2.22171 -2.447,-2.36003 -0.97286,-0.14407 -1.70578,-0.33308 -1.78381,-0.46755 -0.0429,-0.074 -0.0225,-0.24028 0.0225,-0.35623 0.0539,-0.13386 -0.0193,-0.26594 -0.16001,-0.3785 -0.33873,-0.26796 -0.3035,-0.89903 0.0458,-2.27097 0.39017,-1.53367 0.38389,-1.5705 1.05198,-2.24871 0.29898,-0.3033 0.9125,-0.97676 1.37217,-1.51398 0.17328,-0.20261 0.37202,-0.39755 0.54886,-0.57887 l -1.80668,-0.89058 0.98338,-2.18192 c 0.007,-0.0418 -0.007,-0.0956 0,-0.13358 0.0599,-0.36289 0.17029,-0.7652 0.2515,-0.89058 0.0811,-0.1254 0.17071,-0.36697 0.18292,-0.53435 0.0193,-0.24121 0.32496,-0.65339 0.66323,-0.97963 l 2.10397,-4.69779 c 0.172,-0.65194 0.69433,-1.79369 1.30354,-2.80532 0.3442,-0.57168 0.6328,-1.12159 0.64035,-1.22455 0.007,-0.10294 0.24252,-0.39635 0.52599,-0.66793 0.28325,-0.27155 0.6691,-0.75669 0.84617,-1.04643 0.17714,-0.28975 0.39868,-0.64068 0.52599,-0.80152 0.17864,-0.22578 0.56054,-1.65326 0.61747,-2.3155 0.002,-0.0407 0.1996,-0.22585 0.41165,-0.40076 0.21783,-0.17964 0.52402,-0.65255 0.70895,-1.06869 0.17992,-0.40523 0.43488,-0.82277 0.5946,-0.95737 0.15981,-0.13459 0.31342,-0.33126 0.32014,-0.42302 0.007,-0.0918 0.16688,-0.31328 0.34303,-0.48982 0.68789,-0.6894 1.34001,-3.46309 1.16633,-4.9427 -0.0642,-0.54641 -0.0458,-0.86622 0.13735,-1.51399 0.12835,-0.45396 0.32389,-1.24798 0.43455,-1.75889 0.28196,-1.30128 0.71933,-2.72347 0.8233,-2.71626 0.0849,0.006 0.22582,-0.35554 0.59456,-1.53624 0.0984,-0.31483 0.26433,-1.04652 0.36593,-1.6253 0.10161,-0.57881 0.27009,-1.30785 0.3659,-1.62531 0.0956,-0.31744 0.19511,-0.88406 0.2515,-1.26907 0.0564,-0.38506 0.18869,-1.11268 0.27461,-1.6253 0.0856,-0.51263 0.14847,-0.98743 0.13734,-1.04643 -0.0128,-0.0591 0.0603,-0.3109 0.18291,-0.55661 0.14077,-0.28246 0.24541,-0.76945 0.27458,-1.3136 0.0257,-0.47326 0.0729,-0.9013 0.11425,-0.95737 0.0875,-0.11799 0.27617,-1.08359 0.45736,-2.47136 0.0778,-0.59722 0.19339,-1.085 0.32015,-1.2468 0.11359,-0.14474 0.22196,-0.33202 0.22871,-0.42303 0.007,-0.091 0.16002,-0.42123 0.34304,-0.75699 0.18312,-0.33574 0.42834,-0.89717 0.52601,-1.24681 0.23609,-0.84568 0.35526,-2.7226 0.18292,-2.84984 -0.0995,-0.0733 -0.11103,-0.11848 0,-0.17812 0.22262,-0.11958 0.25982,-2.5594 0.13734,-3.98533 l -0.82355,-2.20421 c -0.002,-0.004 0.002,-0.0187 0,-0.0222 -0.0719,-0.0858 -0.13991,-0.15286 -0.18291,-0.15585 -0.172,-0.012 -1.17846,-1.1258 -1.16631,-1.29134 0.002,-0.0433 0.25824,-0.32481 0.59457,-0.64567 l -0.0225,-0.0445 -6.79223,-5.9446 -0.0687,-0.22264 c -0.0225,0.0651 -0.0496,0.13748 -0.0687,0.20037 -0.0995,0.33337 -0.21622,0.60382 -0.25149,0.60114 -0.0353,-0.003 -0.4258,-0.39398 -0.89191,-0.84604 -0.46621,-0.45207 -1.0798,-0.95569 -1.37218,-1.13549 -0.29255,-0.17984 -0.69959,-0.53254 -0.89188,-0.77925 -0.19212,-0.2467 -0.33956,-0.42589 -0.34304,-0.3785 -0.002,0.0474 -0.0865,0.0384 -0.16002,-0.0445 -0.0739,-0.0829 -0.27172,-0.16516 -0.45741,-0.17811 -0.24796,-0.0173 -0.33186,-0.0855 -0.32014,-0.24491 0.008,-0.11932 -0.12986,-0.42571 -0.29737,-0.6902 -0.16708,-0.26449 -0.4917,-0.81749 -0.70897,-1.22454 -0.21719,-0.40705 -0.8122,-1.23764 -1.32642,-1.84795 -0.80601,-0.95662 -0.94552,-1.21137 -1.07485,-1.82568 -0.30861,-1.46596 -0.13115,-2.79102 0.3659,-2.76079 0.21718,0.0132 1.19256,-1.02576 1.21207,-1.29134 0.007,-0.0886 0.0823,-0.13898 0.16003,-0.13359 0.26914,0.0187 0.5928,-0.37685 0.61749,-0.71246 0.0128,-0.18552 -0.0408,-0.64675 -0.13734,-1.02416 -0.50774,-1.98759 -0.52619,-1.91199 -0.34306,-3.45099 0.0963,-0.80975 0.19211,-1.48254 0.20601,-1.51398 0.0464,-0.10564 0.37119,-3.43721 0.43451,-4.47515 0.0613,-1.0048 -0.0843,-2.11533 -0.41166,-2.98343 -0.0847,-0.22474 -0.21525,-0.59902 -0.27461,-0.84605 -0.0592,-0.24703 -0.21972,-0.52591 -0.34301,-0.62341 -0.3118,-0.24666 -0.85792,-1.09895 -0.84617,-1.3136 0.0107,-0.17261 -1.02097,-1.39092 -1.18922,-1.40266 -0.0463,-0.003 -0.33667,-0.27654 -0.6632,-0.6234 -0.32652,-0.34685 -0.66611,-0.64109 -0.7318,-0.64567 -0.0657,-0.004 -0.12729,-0.11298 -0.16004,-0.24491 -0.0325,-0.13194 -0.13883,-0.23708 -0.25149,-0.24491 -0.11253,-0.008 -0.40845,-0.15573 -0.64032,-0.33396 -0.26626,-0.20456 -0.60277,-0.33561 -0.89192,-0.35623 -0.25182,-0.018 -0.59433,-0.11276 -0.77756,-0.22265 -0.18312,-0.10993 -0.6536,-0.31483 -1.05199,-0.44529 -0.39837,-0.13045 -1.01987,-0.38968 -1.37215,-0.57887 -0.43105,-0.23142 -1.01372,-0.41496 -1.73808,-0.53435 -0.59208,-0.0976 -1.80227,-0.31219 -2.72143,-0.48981 -0.97178,-0.18779 -2.45895,-0.39444 -3.54473,-0.46756 -2.30374,-0.1551 -3.03555,-0.0186 -5.58014,0.97964 -0.96844,0.3799 -1.85277,0.67433 -1.9439,0.66793 -0.0911,-0.006 -0.50356,0.13026 -0.91474,0.28944 -0.41122,0.1592 -0.88119,0.34047 -1.05199,0.40076 -0.36165,0.12758 -0.73702,0.31657 -1.62374,0.86831 -0.63262,0.39363 -1.69609,1.49888 -1.7152,1.75889 -0.007,0.0734 -0.1029,0.25813 -0.20601,0.42302 -0.37669,0.60292 -0.78995,1.39325 -0.80043,1.53625 -0.007,0.0807 -0.23673,0.50251 -0.50312,0.95737 -0.26659,0.45486 -0.47397,0.91577 -0.48026,1.0019 -0.007,0.0861 -0.12408,0.38429 -0.27425,0.66793 -0.1504,0.28365 -0.32962,0.72755 -0.38881,1.0019 -0.15039,0.69652 -0.86054,2.52444 -0.98338,2.51588 -0.0558,-0.004 -0.12066,0.17414 -0.13735,0.40076 -0.0332,0.45085 -0.22167,0.73219 -0.68607,1.13549 -0.21523,0.18698 -0.26496,0.37826 -0.22872,0.57887 0.0289,0.16308 -0.0341,0.26953 -0.11445,0.28944 -0.0764,0.019 -0.172,0.2957 -0.22873,0.6234 -0.0853,0.49137 -0.0357,0.73152 0.20601,1.31361 0.4845,1.16863 1.28651,2.0059 2.03541,2.11512 l 0.32012,0.0445 -0.0913,1.29134 c -0.0855,1.43905 0.12151,3.47547 0.43449,4.34157 0.25567,0.70741 0.9427,1.58063 1.44079,1.82568 0.20879,0.10276 0.37061,0.24755 0.36588,0.3117 -0.0128,0.17258 -0.75009,2.41505 -0.89188,2.71626 -0.12193,0.25872 -0.13498,0.258 -0.93767,-0.28944 -0.442,-0.30148 -1.10574,-0.87118 -1.50935,-1.26907 -0.63492,-0.62602 -1.35326,-1.15151 -1.55511,-1.15775 -0.034,-7.1e-4 -0.11894,-0.0178 -0.18291,-0.0222 -0.0638,-0.004 -0.29737,-0.17561 -0.50312,-0.37849 -0.47185,-0.46543 -2.06983,-1.57306 -3.1331,-2.18192 -0.87725,-0.50238 -2.76714,-1.43282 -2.97301,-1.44719 -0.0693,-0.005 -0.70265,-0.317 -1.39504,-0.71246 -0.41537,-0.23729 -0.78568,-0.44284 -1.09768,-0.60114 l -4.91693,-111.90101 0.13735,-0.6902 54.61198,-187.9563 c 0.0378,0.0935 0.0721,0.17717 0.0914,0.22264 l 0.0225,-0.20038 0.4345,-1.89247 3.27033,-11.2658 0.0458,-0.13359 0,-0.15585 0.20473,-166.31875535 -2.1954,0 L 238.3155,147.395 l -3.15599,-24.40181 -8.1186,-35.20006 1.60085,-2.449087 c -0.0193,-0.227325 -0.0225,-0.451907 -0.0225,-0.667933 0.002,-2.565019 2.40781,-7.747479 3.31606,-7.146881 0.72878,0.481902 1.33215,-2.216696 1.3493,-6.100453 0.007,-1.804293 0.60607,-6.4803 1.34928,-10.397488 0.74325,-3.917186 1.39691,-8.328218 1.44078,-9.796349 0.16622,-5.557851 -1.03561,-14.71587 -2.95017,-22.442543 -0.57809,-2.333077 -1.18437,-6.08478 -1.34925,-8.326896 -0.72777,-9.887715 -2.25509,-20.61026177 -3.29378,-21.36517122 -0.39375,-0.28619028 -52.10097,0.98660693 -114.89545,0.88189721 L -0.57769863,-0.21815386 z M 232.64373,184.77698 l -7.63834,26.29429 c -0.015,-1.04467 -0.0809,-2.16216 -0.20601,-3.42872 -0.47861,-4.84565 0.13863,-7.31134 2.37843,-9.52918 1.37866,-1.36507 3.2212,-5.69598 3.2474,-7.6367 0.007,-0.40338 0.97339,-2.85319 2.21833,-5.69969 z m -10.13109,34.82156 -37.23125,128.13179 0.52599,-3.05023 0,-13.2696 c -0.71529,4.41994 -1.07943,5.76699 -1.39503,5.76649 -0.2807,-4.4e-4 -0.58166,-4.5245 -0.66318,-10.06352 -0.0815,-5.53904 -0.13992,-11.98386 -0.13735,-14.31603 0.007,-4.34408 1.01827,-9.41545 2.03535,-10.17484 0.78609,-0.58689 1.96254,-2.43995 2.9959,-4.49742 l 0.0225,-0.0445 3.49902,-15.40698 0.4345,-2.49362 -0.0914,-1.29133 c -0.18098,-2.72115 -0.1213,-7.16495 0.13733,-9.88541 0.25857,-2.72044 0.4988,-7.24553 0.526,-10.06352 0.047,-4.884 0.10355,-5.12314 1.57798,-5.12082 1.81279,0.003 2.16758,0.19804 1.92103,2.53815 l 0.2746,-1.60304 4.52812,-3.29514 c 0.54328,-2.81364 0.94798,-4.2752 1.28068,-4.69779 0.46053,-0.58491 1.24988,-3.2913 1.73809,-6.0114 0.80855,-4.50499 1.18002,-5.25153 4.18505,-8.30463 2.19227,-2.22732 3.87147,-3.34145 5.00838,-3.33966 1.94579,0.003 6.08022,-3.86074 6.08325,-5.67743 9.2e-4,-0.63868 1.02223,-2.13869 2.26409,-3.33967 0.16687,-0.16134 0.32834,-0.32192 0.48023,-0.48982 z m -42.39973,156.8529 4.43668,101.32541 c -0.14569,-0.12014 -0.31761,-0.2882 -0.43456,-0.44529 -0.46153,-0.62014 -1.58673,-1.4406 -3.43039,-2.49361 -2.01569,-1.1513 -2.27157,-1.25963 -3.27032,-1.42493 -1.40351,-0.23229 -1.94835,-0.49361 -3.13308,-1.49171 -0.20239,-0.17049 -0.72093,-0.51971 -1.16636,-0.80152 -0.44536,-0.28184 -1.12772,-0.71426 -1.50935,-0.95737 -0.59638,-0.37986 -1.72395,-1.05212 -3.45326,-2.0038 -0.23963,-0.13196 -0.69118,-0.4648 -0.98339,-0.75699 -0.29222,-0.29217 -0.73366,-0.68531 -1.00624,-0.86831 -0.27266,-0.18301 -0.80944,-0.66254 -1.1892,-1.0687 -0.37976,-0.40612 -0.93942,-0.93467 -1.25782,-1.18001 -0.31823,-0.24532 -0.76645,-0.61982 -0.96053,-0.80152 -0.19403,-0.18171 -0.60434,-0.48797 -0.91475,-0.6902 -0.98088,-0.63898 -2.04675,-1.54865 -3.24747,-2.76079 -1.69046,-1.70657 -1.76861,-1.79317 -2.56133,-2.33776 1.00562,-1.18965 1.71466,-2.16783 1.71518,-2.47135 9.1e-4,-0.47638 1.29125,-2.99628 2.85866,-5.58837 0.83712,-1.38436 1.73756,-3.2192 2.62999,-5.34347 l -1.60086,7.30273 9.83381,-17.01002 -2.95015,-14.42735 -0.1829,0.80152 -0.0225,-0.3117 c -0.0777,-0.83306 -0.12727,-1.63208 -0.18291,-2.38229 l -3.01872,-14.69453 4.04787,-3.9408 1.46363,-3.25061 c 0.0107,0.3709 0.0107,0.70751 0.0225,1.09096 0.007,0.14384 0.0193,0.50804 0.0225,0.6902 l 5.58012,-5.43252 3.86488,-16.2753 z m -31.21662,92.21926 c 0.76379,0.47062 1.62664,0.93029 1.98964,1.02416 0.22103,0.0571 0.56295,0.18033 0.75468,0.28944 0.61359,0.34904 2.20371,1.73478 3.499,3.02796 0.96559,0.96397 2.03127,1.45076 3.43042,1.53625 1.29617,0.0792 1.57595,0.18268 1.7152,0.84605 0.13413,0.63829 1.44717,3.51199 2.24117,4.87591 0.31502,0.5408 0.62733,1.22433 0.70897,1.51398 0.0815,0.28968 0.3259,0.77433 0.52601,1.09096 0.20025,0.3166 0.41587,0.80843 0.48023,1.06869 0.0645,0.26028 0.32079,0.84236 0.57175,1.3136 0.51184,0.96082 0.73178,1.53693 1.12056,2.84985 0.38349,1.29497 0.75338,2.31755 0.96053,2.67173 0.27396,0.46833 0.70272,1.64357 0.96051,2.71626 0.35981,1.49714 0.87828,2.26668 2.95014,4.3193 0.86708,0.85905 2.78054,3.09804 3.56763,4.16345 0.2118,0.2865 0.63367,0.67118 0.93763,0.84604 0.3041,0.17487 0.72237,0.4468 0.93766,0.62341 0.21523,0.1766 0.59928,0.45797 0.84616,0.60114 0.24701,0.14316 0.49491,0.35198 0.54888,0.48981 0.11488,0.29335 1.19257,0.65734 1.53223,0.51209 0.1228,-0.0525 0.59055,-0.009 1.14345,0.11132 1.23324,0.26808 2.24931,0.36695 2.72144,0.26717 0.47884,-0.1012 1.92099,-0.002 2.72147,0.15585 l 1.92101,43.83866 c -0.60829,0.49028 -0.78271,1.39736 -0.41166,2.56041 0.14247,0.44619 0.35044,0.79164 0.57173,1.09096 l 0.0458,1.15775 1.44076,-0.0668 c 0.15039,0.11625 0.28711,0.24435 0.41166,0.3785 0.62991,0.67795 0.58051,0.90296 -0.20602,1.00189 -0.26242,0.033 -0.82039,0.11532 -1.25779,0.17812 -0.43743,0.0628 -1.10265,0.12098 -1.46367,0.13359 -0.45371,0.0159 -0.89166,0.14762 -1.46363,0.42302 -1.47301,0.70926 -1.5548,0.76139 -2.28695,2.20418 -0.16174,0.31867 -0.1812,0.52335 -0.11423,1.04643 0.0633,0.49354 0.0388,0.83522 -0.11445,1.35813 -0.11168,0.38119 -0.20539,0.92539 -0.22872,1.22454 -0.0225,0.29916 -0.19639,1.03032 -0.36593,1.6253 -0.16943,0.59498 -0.38966,1.57237 -0.48024,2.18192 -0.1014,0.68093 -0.23772,1.23645 -0.36592,1.40266 -0.11445,0.14877 -0.28935,0.67419 -0.3659,1.15775 l -0.11423,0.84605 -0.91475,0.44528 c -1.23771,0.57398 -1.64013,0.87372 -3.24746,2.24871 -0.95329,0.81552 -1.83004,1.69851 -2.69859,2.76079 -1.34586,1.64604 -2.12228,2.38749 -3.27032,3.09476 -1.1593,0.71422 -3.18463,2.73522 -4.77969,4.78685 -0.44123,0.56752 -0.92326,1.12282 -1.07485,1.24681 -0.15146,0.12399 -0.53261,0.60436 -0.84616,1.06869 -0.31374,0.46433 -0.68807,0.93985 -0.82333,1.04643 -0.13542,0.10654 -0.22197,0.2666 -0.2287,0.35623 -0.007,0.0896 -0.11638,0.22929 -0.20602,0.3117 -0.16174,0.14916 -0.3615,0.43838 -1.00625,1.44719 -0.18612,0.29134 -0.61309,0.77251 -0.96053,1.06869 -0.4669,0.39807 -0.75165,0.76246 -1.07484,1.42492 -0.7549,1.54738 -0.90397,1.79145 -1.55513,2.62721 -0.3492,0.44823 -0.63748,0.87399 -0.64035,0.91284 -0.002,0.0388 -0.58426,0.77238 -1.30354,1.66983 -1.44689,1.80525 -1.72405,2.2256 -2.67568,3.96307 -1.2121,2.21303 -1.33414,2.4217 -1.94391,3.20608 -0.33468,0.43047 -0.91223,1.03368 -1.28069,1.3136 -0.42506,0.32292 -0.89473,0.82343 -1.25783,1.38039 -0.3147,0.48283 -0.65048,1.00293 -0.75466,1.15775 -0.40836,0.60676 -0.9434,1.67992 -1.14346,2.29324 -0.18762,0.57521 -0.18228,0.78694 -0.0458,1.89247 0.084,0.68078 0.15553,1.83691 0.16002,2.58268 0.007,1.30231 0.2807,3.26869 0.82329,5.65516 0.2073,0.91165 0.74876,3.36955 1.00625,4.65327 0.18761,0.9353 0.31277,3.01421 0.2515,3.80722 -0.0321,0.39598 0.002,1.52585 0.0687,2.49361 0.0654,0.96774 0.14527,2.30176 0.16002,2.98343 0.0149,0.68167 0.0885,1.63251 0.18292,2.09286 0.19382,0.94406 0.51666,2.94989 0.75468,4.80912 0.15404,1.20383 0.15596,1.27814 -0.0914,1.91474 -0.22744,0.58594 -0.24541,0.77252 -0.16004,1.53624 0.0537,0.47885 0.26371,1.35243 0.50313,1.95927 0.47587,1.20637 0.58662,1.84468 0.59463,4.60874 0.007,2.02604 0.0257,2.23853 0.34301,2.87211 0.13992,0.27774 0.4471,1.01593 0.66322,1.6253 0.39037,1.10061 0.38568,1.11499 0.20601,2.0038 -0.0995,0.49208 -0.25631,1.38501 -0.34304,1.98154 l -0.16003,1.06869 -0.57172,0.28944 c -0.60886,0.29269 -2.18086,0.61446 -4.80255,1.0019 -1.37264,0.20287 -1.80066,0.2233 -2.5385,0.11132 -0.77824,-0.11814 -0.99529,-0.0832 -1.69232,0.13358 -0.68499,0.213 -0.84696,0.20611 -1.16635,0.0668 -0.20409,-0.089 -0.95062,-0.22787 -1.64657,-0.3117 -1.03513,-0.12468 -1.31911,-0.11471 -1.6466,0.0222 -0.22037,0.0921 -0.41507,0.11333 -0.41166,0.0668 0.002,-0.0465 -0.18677,0.0868 -0.43449,0.28943 -0.24797,0.20267 -0.47428,0.43024 -0.48026,0.51209 -0.007,0.0818 -0.16238,0.33559 -0.36593,0.53434 -0.20366,0.19877 -0.57661,0.66094 -0.82331,1.04643 -0.35809,0.55971 -0.43251,0.7785 -0.38874,1.09096 0.0289,0.21523 0.0321,0.66824 0.0225,1.02416 -0.0257,1.03261 -5.1e-4,1.73435 0.0458,2.27097 -1.19495,-0.3372 -2.97232,-1.41118 -4.13933,-2.56041 -0.9441,-0.92965 -4.65419,-0.59755 -6.88365,0.62341 -0.61455,0.33656 -1.82996,0.62477 -2.69858,0.6234 -0.86862,-0.001 -3.32539,0.9524 -5.46581,2.11512 -2.14041,1.16272 -4.72241,2.09442 -5.7173,2.09286 -1.58469,-0.002 -1.83944,-0.32727 -2.14971,-2.64947 -0.94383,-7.06406 -6.259,5.37726 -8.530268,-17.25493 -0.936342,-9.33017 -4.890097,-22.25495 -5.282795,-24.82484 -0.392706,-2.57003 -0.510931,-5.74069 -0.25149,-7.05782 1.160365,-5.89206 1.200627,-9.27678 0.09138,-11.91147 -1.51028,-3.58746 -1.144603,-5.96813 0.983393,-6.27857 0.911607,-0.13297 2.036382,-0.58135 2.49273,-0.97963 0.987319,-0.86184 1.130224,-5.91931 0.182917,-6.54575 -0.364157,-0.24081 -0.665005,-1.33085 -0.663193,-2.42682 0.0019,-1.52717 0.44104,-2.18683 1.898153,-2.82758 1.045707,-0.45986 2.313417,-1.65838 2.812927,-2.64947 0.83468,-1.65606 6.02727,-5.68444 8.69035,-6.74612 0.61715,-0.24604 1.64554,-1.33807 2.28693,-2.42682 0.64137,-1.08883 1.88736,-2.63703 2.76718,-3.42872 1.36906,-1.23186 1.58909,-2.02618 1.55512,-5.58837 -0.0321,-3.23365 0.36332,-4.93227 1.73804,-7.61444 1.45234,-2.83355 1.60508,-3.57256 0.84618,-4.07439 -0.72206,-0.47746 -0.27203,-1.37479 2.10398,-4.07439 0.97065,-1.10281 1.62465,-1.92629 2.10396,-2.694 l -0.32013,-4.05212 4.77968,-9.30653 4.77969,-15.49604 4.09357,-13.91527 c 0.0428,-2.72898 0.35222,-4.31235 1.12062,-6.45669 0.72644,-2.02729 1.32515,-4.19875 1.32641,-4.83138 5.3e-4,-0.43074 0.24221,-0.99885 0.57174,-1.49171 l 2.44701,-16.69832 5.077,-6.05593 c 0.30123,-0.55005 0.63282,-1.11227 0.9605,-1.6253 0.0193,-0.0279 0.0289,-0.0609 0.0458,-0.0891 z m 93.37544,31.28152 c 0.0225,-0.008 0.0596,2e-5 0.0913,0.0222 0.0633,0.0445 0.11637,0.10514 0.11424,0.13359 -0.002,0.0284 -0.0708,0.0492 -0.13734,0.0445 -0.0663,-0.004 -0.0965,-0.0653 -0.0913,-0.13359 0.002,-0.0341 3.6e-4,-0.0589 0.0225,-0.0668 z m -54.26887,6.61254 c 0.12023,0.0753 0.255,0.14828 0.38874,0.24491 0.33317,0.24094 0.76436,0.463 0.96053,0.51208 0.19597,0.0492 0.56564,0.19325 0.82329,0.3117 0.25757,0.11846 0.67225,0.22519 0.91477,0.24491 0.37502,0.0305 0.47236,0.12074 0.75468,0.55661 0.18248,0.28179 0.30699,0.55729 0.27426,0.60114 -0.0323,0.0439 0.13885,0.32158 0.3888,0.6234 0.96783,1.16942 1.65013,2.55568 2.03537,4.18572 0.0622,0.26363 0.16451,0.63679 0.22872,0.82378 0.0642,0.18698 0.12065,0.42693 0.11445,0.51208 -0.007,0.0852 0.0515,0.29819 0.13734,0.48982 0.0853,0.1916 0.14569,0.43604 0.13735,0.55661 -0.0372,0.52818 0.42351,1.81493 0.80042,2.22644 0.34781,0.37988 0.43219,0.43599 0.84617,0.40076 0.2563,-0.0218 0.61595,-0.11265 0.77755,-0.20038 0.51758,-0.28094 3.35318,-1.02455 4.27656,-1.11322 l 0.48025,-0.0222 -0.34306,0.64563 c -0.18633,0.3654 -0.5679,1.618 -0.86903,2.80532 -0.29897,1.17842 -0.74656,2.62904 -0.98338,3.22834 -0.54821,1.38748 -0.91503,2.56229 -0.9605,3.09476 -0.17007,1.99241 -0.44797,4.2816 -0.64034,5.34346 -0.1277,0.70417 -0.24156,1.769 -0.25149,2.36003 -0.0128,0.8392 -0.10911,1.37748 -0.41164,2.44909 -0.21308,0.75475 -0.44994,1.45123 -0.526,1.55851 -0.0759,0.10726 -0.13092,0.24924 -0.13735,0.33397 -0.015,0.20531 -1.17223,1.547 -1.3264,1.53624 -0.0663,-0.005 -0.21591,0.16047 -0.34304,0.3785 -0.12709,0.218 -0.30187,0.40684 -0.38877,0.40076 -0.0873,-0.006 -0.17714,0.0552 -0.18291,0.13358 -0.007,0.0784 -0.11125,0.2341 -0.25148,0.35623 -0.95147,0.82796 -1.8527,1.94045 -2.33266,2.89438 -0.34508,0.68591 -0.42491,0.97277 -0.50313,1.98153 -0.0914,1.1795 -0.0193,1.88745 0.22872,2.42683 0.12708,0.27553 0.10333,0.29284 -0.16003,0.20038 -0.4306,-0.15117 -1.43182,-0.40226 -2.10397,-0.53435 l -1.85241,-42.54732 z m 5.37424,1.6253 c 0.0257,0.005 0.0514,0.044 0.0914,0.0891 0.0727,0.0818 0.0823,0.16946 0.0458,0.20038 -0.086,0.0727 -0.19446,-0.0884 -0.18291,-0.24491 0.002,-0.0368 0.0225,-0.0493 0.0456,-0.0445 z m 30.1189,60.24754 0.0686,0.46756 c 0.0341,0.2617 0.0449,0.66601 0.0225,0.89057 -0.0225,0.22461 -0.0107,0.50542 0.0458,0.62341 0.11489,0.25053 0.13414,0.25837 -0.27458,-0.0222 -0.35584,-0.24444 -0.35997,-0.30231 -0.0687,-1.26907 l 0.20602,-0.6902 z m 4.25373,3.74043 0.54882,0.66793 c 0.30123,0.36782 0.53363,0.75848 0.52599,0.86831 -0.0193,0.29002 0.17029,0.79048 0.6175,1.55851 0.72181,1.24028 0.8287,1.60421 0.80042,2.76079 -0.0128,0.58997 -0.0363,1.06975 -0.0458,1.06869 -0.13241,-0.0152 -0.70421,-0.58186 -1.00624,-0.97963 -0.21428,-0.28209 -0.54212,-0.56843 -0.68607,-0.6234 -0.14375,-0.0549 -0.26721,-0.13615 -0.29736,-0.17812 -0.19339,-0.26885 -0.85407,-0.66498 -1.25781,-0.75699 -1.0322,-0.23528 -1.87378,-1.24707 -1.80669,-2.15965 0.0348,-0.47502 0.10932,-0.54246 0.84616,-1.13549 0.43717,-0.35176 1.01288,-0.74534 1.28069,-0.86831 l 0.48027,-0.22264 z m -3.40754,6.38989 c 0.0386,-0.005 0.0777,-0.0137 0.0914,0 0.0552,0.0548 0.33283,0.20336 0.61747,0.33396 0.28453,0.13058 0.64609,0.35321 0.80043,0.48982 0.15423,0.1366 0.37305,0.2581 0.50312,0.26717 0.12985,0.009 0.36385,0.16099 0.52599,0.35624 0.16238,0.19522 0.47214,0.46038 0.6632,0.57887 0.28038,0.17389 0.28645,0.20966 0.0914,0.20038 -0.37678,-0.0179 -1.11082,0.41306 -1.64662,0.95737 -0.67755,0.68842 -1.6934,2.45782 -1.73805,3.02796 -0.015,0.18366 -0.0408,0.43654 -0.0914,0.57888 -0.0798,0.22471 -0.1797,0.27165 -0.66325,0.22264 -1.4222,-0.14416 -1.52202,-0.28494 -1.18917,-1.24681 0.13093,-0.37863 0.23418,-0.87642 0.25151,-1.11322 0.015,-0.2368 0.1061,-0.50511 0.18291,-0.6234 0.0768,-0.1183 0.20046,-0.94475 0.29739,-1.82568 0.0965,-0.88093 0.21179,-1.62041 0.22871,-1.62531 0.015,-0.005 0.23834,-0.17034 0.526,-0.35623 0.21555,-0.13943 0.43338,-0.20689 0.54886,-0.22264 z m -71.30655,47.067 c 0.0321,-0.026 0.0648,0.15316 0.0913,0.42302 0.0257,0.26989 0.0332,0.50645 0,0.53435 -0.0332,0.0279 -0.0898,-0.15118 -0.11424,-0.42302 -0.0257,-0.27183 -0.007,-0.50836 0.0225,-0.53435 z m 41.30198,9.01709 0.43453,2.3823 c 0.70768,4.00353 0.82146,4.93284 0.8919,6.61253 0.0777,1.84964 0.26882,2.81043 0.89192,4.36383 0.29159,0.727 0.49309,1.45668 0.57171,2.15965 0.0654,0.58415 0.14141,1.3283 0.18291,1.64757 0.0413,0.31926 0.0563,1.34787 0.0225,2.29323 -0.0333,0.94537 -0.15083,2.25313 -0.2515,2.89438 l -0.18291,1.15775 -0.0914,-1.66983 c -0.0552,-0.91138 -0.17863,-1.93165 -0.2515,-2.29324 -0.0729,-0.3616 -0.16194,-1.02122 -0.22871,-1.44719 -0.12708,-0.81187 -0.1643,-1.07055 -0.41163,-3.38419 -0.16644,-1.55614 -0.24474,-2.10128 -0.38879,-2.91664 -0.0524,-0.29534 -0.13371,-0.80798 -0.18292,-1.13549 -0.0493,-0.32754 -0.13819,-0.64454 -0.18291,-0.71246 -0.3195,-0.48767 -0.88399,-4.38458 -0.80044,-5.52158 0.0225,-0.30725 0.015,-0.83836 -0.0225,-1.15775 -0.0372,-0.31938 -0.0622,-1.17045 -0.0458,-1.91474 l 0.0458,-1.35813 z m -43.45169,41.03334 c 0.10525,-0.0331 0.19275,-0.003 0.32015,0.0891 0.12087,0.087 0.0821,0.31766 -0.18292,1.22454 -0.16451,0.56333 -0.2996,0.94038 -0.52599,1.35813 -0.14013,-0.69093 -0.29191,-1.36822 -0.45739,-2.02606 0.1457,-0.045 0.26466,-0.13232 0.43452,-0.3117 0.18955,-0.2001 0.30635,-0.30093 0.41167,-0.33397 z"
     id="path2170"
     sodipodi:nodetypes="ccccsssscssssssssssssscccsssssssssssssssssssssssssssssssccccccsssssssssssssssssssssssssssssssssscccsssssssssssssssssssssscccsssssssssssssssssssssssssssscccsssssssssssssssssssssssssssscccsssccsssssssssssssssssssssssssssssssccsssccccssssssssssssssssssssssssssssssssssssssssssssssssssssssssscccssssssssssssccccccccccccccccssssssssccccssscccccsssscccccssscccsssssscccsssssssssssssscssccccccccccsccccssssssssssssssssssssssccscccsssssssssssscccssssssssssssssssssssssssssssssssssssscccssssssssssssscssssssssssssssssssssssscccccsscccsccssssccssssssssssssssscccssssssssssssssssscccssscccsssccccsssssssssscccsssssssssssssssssccssscccssssscccsssssssscccssccsc" />
  <path
     id="path1318"
     style="fill:#000000"
     d="" />
  <path
     id="path1316"
     style="fill:#000000"
     d="" />
  <path
     id="path22561"
     style="fill:#000000"
     d="" />
  <path
     id="path22563"
     style="fill:#000000"
     d="" />
  <path
     id="path22838"
     style="fill:#000000"
     d="" />
  <path
     id="path22840"
     style="fill:#000000"
     d="" />
  <path
     id="path23518"
     style="fill:#000000"
     d="" />
  <path
     id="path23520"
     style="fill:#000000"
     d="" />
  <path
     id="path23656"
     style="fill:#000000"
     d="" />
  <path
     id="path23658"
     style="fill:#000000"
     d="" />
  <path
     id="path5484"
     style="fill:#000000"
     d="" />
  <path
     id="path5486"
     style="fill:#000000"
     d="" />
  <path
     id="path8393"
     style="fill:#000000"
     d="" />
  <path
     id="path8395"
     style="fill:#000000"
     d="" />
  <path
     id="path33831"
     style="fill:#000000"
     d="" />
  <path
     id="path33833"
     style="fill:#000000"
     d="" />
  <path
     id="path2172"
     style="fill:#000000;fill-opacity:1;fill-rule:evenodd;stroke:none"
     d="m 2177.8915,591.6829 0,0 z" />
  <rect
     id="rect7802"
     style="fill:#ffffff;fill-opacity:1;fill-rule:evenodd;stroke:none"
     y="883.11151"
     x="1445.9929"
     height="120.97707"
     width="1096.4747" />
  <rect
     style="fill:#ffffff;fill-opacity:1;fill-rule:nonzero;stroke:none"
     id="rect3546"
     width="300.45068"
     height="143.41927"
     x="-484.76251"
     y="-145.28186"
     transform="scale(-1,1)" />
  <path
     sodipodi:nodetypes="ccssscccsssssssssssssssssssssssssssssssssssssssssssssssssssssssssssscccssssssssssssssssssssssscccssssssssssssssssssssssssssssssssssssssssscccssssscsssscsssssssssssssssssssssssssssssscccssssssssssssssscsssssssssscccccssssccssssssssscsssccsssssssssssssssssssssssssccccccsssssssssssssssssssssssssssssssssssssssssssssscccssssssssssssssscccssssssssssssssssccssssssssssssssssssssssssssssssssssssssssscssssssssssscccssssssssssssscccssssssssssscccccccccssccscssssscccssccscscsccccsssscccscccccsccccccccccsssccssssccssccsscsccsccccccccssccscccssssscssccccssssccccssssccccccc"
     id="path2744"
     d="M 355.4987,-4.3626211 354.13711,361.25446 c -0.30566,0.0697 -0.63512,0.14046 -0.93115,0.22264 -1.12321,0.31179 -1.26757,0.44319 -2.01383,1.84795 -1.10837,2.08659 -1.02224,3.4419 0.23813,4.87591 0.49161,0.55923 1.06198,1.31976 1.29926,1.69209 l 0.43308,0.66794 -1.01773,1.09095 c -1.00183,1.04954 -1.03978,1.13759 -1.25597,3.27287 -0.1224,1.21055 -0.15307,2.76671 -0.065,3.45099 0.22993,1.78797 1.21038,4.76538 2.03548,6.14498 0.9939,1.66198 1.01313,1.957 0.86615,14.24924 -0.058,4.84635 0.009,6.33904 0.26,6.76838 0.3739,0.63957 0.41613,0.90809 0.10843,0.71246 -0.11906,-0.0757 -0.29189,0.0404 -0.36812,0.24491 -0.0762,0.20451 -0.3539,0.37849 -0.60631,0.3785 -0.75357,0 -1.5531,0.82648 -3.05323,3.13928 -0.781,1.20419 -1.49599,2.24708 -1.58074,2.3155 -0.47939,0.387 -0.66049,1.35947 -0.6063,3.40646 0.0334,1.26312 0.18893,2.45333 0.32479,2.6272 0.13578,0.17386 0.27974,0.72329 0.34648,1.20228 0.0668,0.479 0.3079,1.7282 0.5197,2.78306 0.47975,2.38959 0.20867,8.31994 -0.43307,9.59596 -0.21839,0.43406 -0.3898,1.37033 -0.3898,2.13739 0,1.35889 -0.37226,3.37272 -1.08271,5.74422 -0.45224,1.50969 -1.2416,7.95712 -1.71066,14.07112 -0.12423,1.62114 -0.0722,1.97678 0.36814,2.694 0.58588,0.95393 2.09759,1.70835 4.17921,2.11512 1.23449,0.24122 1.42932,0.36366 1.64572,1.0019 0.35645,1.0514 0.28978,2.08308 -0.13,2.2487 -0.43797,0.17278 -0.49199,1.13951 -0.065,1.18002 0.16644,0.0158 0.47158,0.0261 0.67127,0.0445 0.27579,0.0254 0.37869,0.43706 0.43307,1.71436 0.0677,1.58924 0.0443,1.71645 -0.51971,1.937 -0.44814,0.17519 -0.5538,0.34498 -0.45472,0.73473 0.1297,0.50988 1.00604,1.20666 1.03939,0.82378 0.009,-0.10745 0.10266,-0.017 0.195,0.22265 0.0924,0.23959 0.15521,1.12691 0.15156,1.937 -0.006,1.30465 -0.0847,1.52939 -0.67128,2.0038 -0.60017,0.48538 -0.67147,0.67758 -0.64961,2.07059 0.0121,0.84544 0.11846,1.81751 0.21657,2.15965 0.15003,0.52331 -0.003,0.83732 -1.0394,2.0038 -0.67716,0.76263 -1.64616,1.92569 -2.14375,2.58268 -1.01777,1.34393 -1.01813,1.99485 -0.0212,3.22834 0.87486,1.08297 0.95447,1.7779 0.32478,2.96117 -0.30283,0.56888 -0.8156,1.32379 -1.126,1.66983 -0.31044,0.34603 -0.67338,1.0063 -0.82286,1.44719 -0.21808,0.64328 -0.41381,0.77924 -0.95277,0.77925 -0.79916,1e-5 -5.77826,1.5178 -7.29741,2.22644 -0.71525,0.33364 -1.57993,0.50843 -2.64181,0.51209 -1.79759,0.006 -2.08535,0.17981 -3.03155,1.75889 -0.36903,0.61585 -0.84991,1.2532 -1.06104,1.42492 -0.8645,0.70324 -3.95166,2.08059 -6.0848,2.69399 -1.56465,0.44991 -2.48878,0.85692 -2.98825,1.33587 -0.3993,0.3829 -1.25168,0.8685 -1.90556,1.09096 -1.09005,0.37077 -3.10691,1.70901 -5.13203,3.45098 -0.98321,0.84577 -1.86397,3.40403 -1.6457,4.78686 0.13214,0.83763 0.0434,0.99524 -1.47247,2.49361 -0.90311,0.89272 -1.60241,1.79793 -1.60241,2.07059 0,0.58783 -3.30119,2.93038 -5.39186,3.82949 -1.74632,0.75099 -4.27516,3.25042 -5.54344,5.45478 -0.86144,1.49723 -0.91815,1.69381 -0.93112,3.82948 -0.0273,4.45316 -0.82077,11.08294 -1.53744,12.84658 -0.22082,0.54333 -0.75446,1.14231 -1.42916,1.58077 -0.59499,0.38668 -1.19822,0.91351 -1.34256,1.20228 -0.53008,1.06071 -0.99029,3.85333 -0.99609,6.03366 -0.006,1.85591 -0.1069,2.4592 -0.60629,3.56231 -0.33148,0.73209 -0.60632,1.45824 -0.60632,1.6253 0,0.16705 -0.36415,0.76266 -0.82287,1.3136 l -0.84448,0.97964 -2.49025,0.15585 c -3.12369,0.19567 -3.67865,0.53241 -3.78946,2.29323 -0.0416,0.65944 -0.24178,1.43336 -0.43308,1.71437 -0.19142,0.28105 -0.3248,0.76507 -0.3248,1.06869 0,0.62837 -0.23176,0.82767 -1.16932,1.0019 -0.36387,0.0676 -0.88139,0.31104 -1.14765,0.55661 -0.90115,0.83122 -2.39041,1.75888 -2.8367,1.75889 -0.54086,10e-6 -1.88632,1.00999 -3.20478,2.40456 -1.04494,1.10523 -2.57158,1.65295 -3.09654,1.11322 -0.1497,-0.15399 -0.41935,-0.26718 -0.60631,-0.26718 -0.18717,0 -0.8959,-0.30363 -1.58077,-0.66793 -1.37678,-0.73243 -3.18061,-1.13013 -5.28358,-1.15775 -1.17588,-0.0155 -1.49327,0.0717 -1.97051,0.60114 -0.79211,0.87878 -1.21612,2.39089 -1.08268,3.85175 0.16792,1.83924 1.05202,3.31738 1.94885,3.3174 0.25453,-10e-6 0.8197,0.28128 1.25592,0.6234 0.4363,0.34213 0.87673,0.64568 0.97445,0.64567 0.0978,10e-6 0.57232,0.39962 1.06105,0.91284 1.00625,1.05675 2.2677,1.72691 3.68116,1.95927 0.53056,0.0872 0.95282,0.31187 0.95278,0.46755 0,0.1557 0.95745,0.56678 2.12212,0.93511 1.8435,0.583 2.49185,0.66017 5.15368,0.64567 2.8515,-0.0156 3.12882,0.0336 4.11424,0.6234 0.58112,0.34778 1.94506,0.92458 3.00991,1.29134 1.06486,0.36674 2.33652,0.85178 2.8367,1.06869 l 0.90945,0.3785 -0.15158,1.64756 c -0.3162,3.34328 -0.40682,3.56451 -1.23428,3.78496 -0.90574,0.24132 -1.39613,0.97303 -1.62406,2.36003 -0.16736,1.01855 -0.17192,1.02539 -0.93111,0.80152 -1.34503,-0.39664 -3.13209,-0.24967 -4.04932,0.3117 -1.01956,0.62401 -1.45082,1.15016 -1.45082,1.78115 0,0.25882 -0.34124,1.26779 -0.75789,2.24871 -0.62868,1.48015 -1.12818,2.19082 -3.00991,4.09665 -1.24714,1.26306 -2.29533,2.47018 -2.29533,2.67174 0,0.20149 -0.43037,0.67641 -0.99609,1.06869 -3.2722,2.26918 -7.03061,3.35291 -11.455,3.33966 -2.54798,-0.008 -2.78555,0.0316 -3.59454,0.62341 -0.70491,0.51568 -0.86619,0.80319 -0.86619,1.49171 0,0.46616 0.0991,1.06877 0.23814,1.33587 0.1896,0.36399 0.1503,0.61293 -0.13005,1.02416 -0.38086,0.55908 -0.47039,1.98143 -0.17319,2.71626 0.0905,0.22372 0.63795,0.79593 1.19098,1.26907 1.09683,0.93824 2.57494,1.40797 6.60447,2.04833 4.38064,0.69608 5.68288,0.94024 5.8033,1.11322 0.0665,0.0955 1.05571,0.29247 2.18708,0.44529 2.24971,0.3038 7.11186,1.63888 7.64385,2.09286 0.18352,0.1566 0.96876,0.35862 1.73232,0.46755 2.18271,0.31128 7.73186,0.0973 9.09471,-0.35623 1.52623,-0.50769 3.31253,-1.65099 3.31308,-2.13738 2.4e-4,-0.2091 0.12818,-0.59837 0.30313,-0.86832 0.57854,-0.89292 0.95997,-3.71524 0.77955,-5.81101 -0.11451,-1.33147 -0.082,-2.15032 0.10843,-2.51588 0.30343,-0.58315 0.62664,-2.67761 0.99609,-6.61254 0.15765,-1.67898 0.40002,-2.77764 0.73623,-3.40646 0.38709,-0.72392 0.47964,-1.39785 0.47639,-2.9389 -0.002,-1.09106 0.10721,-2.03188 0.23812,-2.11512 0.27398,-0.17413 2.26011,-4.14527 2.53353,-5.07629 0.10053,-0.34216 0.55876,-1.25491 1.01775,-2.02606 0.45898,-0.77115 1.1814,-2.45874 1.62403,-3.74043 0.75756,-2.19346 1.61082,-3.9023 3.20483,-6.41215 1.56657,-2.46664 2.0096,-3.96882 2.01382,-6.90198 0.002,-1.45976 0.18164,-2.53649 0.60629,-3.87401 0.7353,-2.31607 1.16248,-6.37727 0.97444,-9.01709 -0.22934,-3.21849 -0.19927,-5.01654 0.0865,-5.56611 0.24754,-0.47581 1.69474,-1.28228 4.00599,-2.22644 0.53243,-0.21749 1.29116,-0.6612 1.66738,-0.97963 0.37627,-0.3184 0.89306,-0.57885 1.14766,-0.57888 0.25453,2e-5 1.19633,-0.30468 2.07879,-0.66793 l 1.58075,-0.64567 1.49413,0.53435 c 3.27278,1.2188 4.82712,1.20254 7.53561,-0.13359 1.40014,-0.69069 1.93045,-1.13692 2.98825,-2.51588 0.70598,-0.92034 1.33916,-1.94234 1.4075,-2.29324 0.0744,-0.38234 0.37175,-0.76592 0.7579,-0.9351 0.89284,-0.39122 2.61556,-1.43799 3.96271,-2.42683 0.63151,-0.46351 1.44,-0.94027 2.2087,-1.35813 0.19775,0.68311 0.40291,1.49229 0.49804,2.15965 0.34394,2.41263 0.34864,6.81607 0,7.05783 -0.42696,0.2961 -0.3293,3.03538 0.25971,7.14688 0.51192,3.57272 1.05039,5.29787 1.689,5.29893 0.13092,2e-4 0.64867,0.28911 1.23428,0.6902 -0.0183,0.14329 -0.0438,0.28836 -0.065,0.42302 -0.11573,0.73105 -0.19438,1.50244 -0.19499,1.73663 -8.7e-4,0.23417 -0.0273,0.71194 -0.065,1.06869 -0.17162,1.64094 -0.17466,2.28798 -0.0212,3.87401 0.0903,0.93423 0.1291,2.01819 0.13001,2.44909 8.6e-4,0.4309 0.038,0.96176 0.065,1.15775 0.0711,0.51931 0.0844,1.89728 0.0434,2.38229 -0.0183,0.23025 -0.0273,0.80343 -0.0434,1.26908 -0.0152,0.46561 -0.0623,1.36239 -0.10813,2.00379 -0.0459,0.64136 -0.0613,1.30827 -0.065,1.46946 -0.006,0.28869 -0.0152,0.28252 -0.43308,0.24491 -0.46754,-0.042 -0.78617,0.0904 -1.25593,0.48981 -0.29281,0.2489 -0.50633,0.63587 -0.8012,1.55851 -0.0577,0.1803 -0.19531,0.42108 -0.32482,0.53435 -0.26576,0.23258 -0.4588,0.92861 -0.38976,1.44719 0.0553,0.41611 0.69146,0.91566 1.3209,1.04643 0.52438,0.10894 0.49498,0.0489 0.43308,1.29133 -0.0574,1.15257 0.0498,2.30972 0.28156,2.89438 0.11511,0.2907 0.31064,0.83145 0.41143,1.18001 0.10083,0.34857 0.20714,0.76209 0.25999,0.93511 0.0525,0.17301 0.14641,0.55305 0.195,0.84605 0.18467,1.11485 0.3145,1.55522 0.49804,1.64756 0.27367,0.13772 0.42056,0.0775 0.56302,-0.22264 0.13,-0.2738 0.1221,-0.86061 -0.0434,-1.20228 -0.0422,-0.0869 -0.0929,-0.3821 -0.10814,-0.64567 -0.0151,-0.26354 -0.0492,-0.55602 -0.0865,-0.66793 -0.0374,-0.11191 -0.10114,-0.56158 -0.10843,-0.97964 -0.006,-0.41805 -0.0659,-1.20258 -0.13001,-1.73662 -0.11966,-0.99687 -0.0863,-2.79583 0.0434,-3.0057 0.0401,-0.0647 0.23144,-0.0975 0.43307,-0.0891 0.27092,0.0114 0.44846,-0.0631 0.69292,-0.26717 l 0.34647,-0.26717 -0.0212,0.33396 c -0.009,0.1879 -0.0183,0.49569 -0.0212,0.6902 -0.003,0.19454 -0.11116,0.80496 -0.21655,1.35813 -0.23147,1.2147 -0.15856,1.47555 0.38978,1.6921 0.43505,0.17184 0.80918,0.0348 1.06105,-0.40076 0.28005,-0.4842 0.56721,-2.12877 0.54133,-3.11702 -0.0183,-0.68709 -0.003,-0.90999 0.10844,-1.06869 0.078,-0.11101 0.18802,-0.50438 0.25999,-0.89058 0.16888,-0.90817 0.006,-1.56616 -0.49803,-2.0038 -0.22265,-0.19303 -0.35787,-0.45836 -0.43307,-0.73473 -0.14794,-0.54399 -0.12728,-2.57162 0.0434,-3.45098 0.14639,-0.75516 0.29007,-2.58371 0.21657,-2.84985 -0.0244,-0.092 -0.0474,-0.35303 -0.0434,-0.55661 0.003,-0.2036 -0.0927,-0.75232 -0.21656,-1.22454 -0.2998,-1.14227 -0.4102,-1.98073 -0.34647,-2.82759 0.15185,-2.01799 0.20927,-2.7251 0.195,-3.5623 -0.0183,-1.13211 -0.14033,-2.53598 -0.26,-3.3174 0.0183,-0.006 0.0462,0.007 0.065,0 0.34295,-0.13593 0.73803,-0.25398 0.88779,-0.26718 1.08619,-0.0957 1.46839,-0.53194 1.64573,-1.84794 0.38757,-2.87566 -0.42885,-9.92063 -1.27759,-11.08769 -0.14156,-0.19459 -0.30994,-0.98573 -0.38979,-1.80342 -0.0799,-0.81771 -0.40999,-3.0918 -0.71458,-5.03176 -0.30459,-1.93997 -0.50899,-3.73237 -0.49805,-3.98533 0.061,-1.41487 0.4962,-4.39659 0.77957,-5.49932 0.002,-0.004 -0.002,-0.0178 0,-0.0222 0.346,-0.5553 0.86093,-1.07757 1.71066,-1.78116 1.71518,-1.42011 2.84543,-2.10619 4.37412,-2.44909 l -1.2776,1.53625 -1.21262,3.18381 -3.1615,11.6443 0.45476,0.80152 c -0.044,-0.19551 -0.0652,-0.3805 -0.065,-0.60114 8.7e-4,-0.48877 0.0978,-0.80239 0.25999,-0.77926 0.0244,0.004 0.0401,0.0272 0.065,0.0445 0.19289,0.13476 0.3473,0.68064 0.34645,1.22455 -8.7e-4,0.48874 -0.0978,0.78174 -0.26001,0.75699 l 1.84061,3.36193 c 0.0438,0.0432 0.0547,0.0566 0.10813,0.11132 0.8563,0.87542 2.56758,1.58138 3.6812,1.51398 0.82142,-0.0497 1.05469,0.19307 1.53745,1.55851 0.84355,2.38594 2.65818,3.34508 6.27967,3.33966 5.28289,-0.008 9.92125,-2.41645 10.04748,-5.20987 0.16219,-3.59017 -0.57225,-11.17377 -1.38584,-14.3383 -0.30782,-1.19718 -0.49994,-2.45678 -0.45477,-2.78305 0.23844,-1.72232 -0.30711,-3.02205 -1.51578,-3.67363 -0.67995,-0.36657 -1.4243,-0.68979 -1.66735,-0.6902 -0.50792,-7.1e-4 -2.18356,-1.90166 -3.33473,-3.67363 0.35805,-0.22727 0.73775,-0.46417 1.12602,-0.73472 0.64047,-0.44628 1.36914,-1.26497 1.75398,-1.95927 0.3646,-0.65793 1.01819,-1.64787 1.45081,-2.20418 0.32656,-0.41988 0.68652,-1.05624 1.06106,-1.87021 l 0.0865,0.51208 c 0.10874,0.75315 0.26882,1.0295 0.84449,1.46945 0.64405,0.49206 1.8719,0.9882 2.3603,0.95737 0.27915,-0.0176 1.07245,-0.51429 1.45082,-0.89058 0.19258,-0.19143 0.33136,-0.24679 0.45473,-0.22264 0.22204,0.0435 1.91685,-0.63174 2.23036,-0.89058 0.21111,-0.1743 0.26943,-0.19947 1.06107,-0.0445 1.01921,0.19949 1.34568,0.12539 2.01381,-0.44528 0.52836,-0.45131 0.63139,-0.55468 0.86618,-1.0687 0.29402,-0.64373 0.26152,-1.87159 -0.065,-2.73852 -0.065,-0.17248 -0.11724,-0.34728 -0.10812,-0.3785 0.0244,-0.0874 -0.25849,-0.42044 -0.36814,-0.44529 -0.0535,-0.0122 -0.11725,-0.12121 -0.15155,-0.22264 -0.0344,-0.10141 -0.21901,-0.34379 -0.41145,-0.53435 -0.19257,-0.19057 -0.54934,-0.56764 -0.80118,-0.84604 -0.36691,-0.40569 -0.53389,-0.52119 -0.82286,-0.57888 -0.42693,-0.0852 -0.47107,-0.13691 -0.54136,-0.51208 -0.0304,-0.15626 -0.13243,-0.3793 -0.195,-0.51208 -0.0623,-0.13277 -0.0775,-0.2814 -0.065,-0.33397 0.0121,-0.0526 -0.0923,-0.30933 -0.21656,-0.53435 -0.1525,-0.27648 -0.25333,-0.6731 -0.30314,-1.22454 -0.0404,-0.44881 -0.15521,-1.12867 -0.26,-1.53625 -0.31404,-1.22253 -0.69478,-1.80226 -1.32091,-1.98153 -0.65234,-0.18676 -1.13653,-0.38352 -1.1693,-0.48982 -0.0183,-0.0586 0.0152,-0.16255 0.065,-0.24491 0.0586,-0.0951 0.0592,-0.21639 -0.0213,-0.3117 -0.12878,-0.15171 -0.13151,-0.41966 0.0213,-0.86831 -0.11724,-0.005 -0.22962,-0.0176 -0.34647,-0.0222 l 1.36421,-1.35813 c 1.08581,-1.08205 2.37577,-2.63567 2.87998,-3.42872 l 0.93114,-1.42492 0.51966,0.73472 c 0.52918,0.76408 0.66508,0.7863 1.92725,0.20038 1.06037,-0.49224 2.68509,-1.68847 2.68509,-1.98153 0,-0.15568 0.22051,-0.52003 0.49803,-0.82379 0.27762,-0.3037 0.61018,-1.04828 0.73624,-1.6253 0.30538,-1.39752 2.53128,-4.11846 5.17533,-6.36763 0.51843,-0.441 1.04994,-1.1634 1.19097,-1.60303 0.17769,-0.5538 0.46961,-0.87619 0.93112,-1.0019 0.5745,-0.15648 0.67232,-0.0827 0.8012,0.44528 0.0823,0.33674 0.10752,1.24548 0.0434,2.02607 -0.0652,0.79429 0.0212,1.91148 0.19498,2.53814 0.17072,0.61585 0.43208,1.77633 0.58468,2.56041 0.26547,1.36419 0.2521,1.46402 -0.34647,2.27097 -0.71486,0.96361 -2.48518,5.25668 -2.79338,6.76839 -0.1136,0.55707 -0.3662,1.44373 -0.56298,1.98153 -0.19683,0.53776 -0.41744,1.65021 -0.49805,2.47135 -0.0805,0.82113 -0.80888,3.50349 -1.60241,5.96687 -0.79353,2.46339 -1.71668,5.49216 -2.05713,6.72386 -0.3405,1.2317 -0.71674,2.4341 -0.84453,2.67173 -0.12785,0.23766 -0.23813,0.6019 -0.23813,0.80152 4e-5,0.40914 -1.49163,3.49898 -2.36028,4.92044 -0.31416,0.51402 -0.80095,1.5739 -1.0827,2.36003 -0.28187,0.7861 -0.60453,1.58781 -0.73624,1.75889 -0.13181,0.17106 -0.20228,0.3117 -0.15155,0.3117 0.051,2e-5 -0.57871,0.70035 -1.38587,1.58077 -2.00795,2.19007 -2.66961,3.56535 -3.26978,6.72386 -0.63092,3.32057 -0.50815,5.23595 0.45474,8.34916 0.90871,2.93794 1.44142,3.3391 1.12602,0.84605 -0.38581,-3.04948 -0.26699,-5.31818 0.34646,-6.52348 0.7854,-1.54318 1.1402,-1.24198 1.03938,0.86832 -0.0832,1.74718 0.14245,2.8767 1.12603,5.45478 0.27641,0.72443 0.66346,1.2628 0.90946,1.3136 0.38035,0.0786 0.38684,-0.048 0.19501,-1.24681 -0.48623,-3.03657 0.12998,-6.71866 1.16933,-7.05782 0.61735,-0.20148 0.96635,0.28686 0.82284,1.13549 -0.0577,0.34213 -0.17526,1.01272 -0.25971,1.49171 -0.12361,0.70049 0.006,1.14344 0.6063,2.20418 0.7244,1.27747 1.2885,1.76993 1.62407,1.42492 0.0892,-0.0919 0.0634,-0.33258 -0.065,-0.51208 -1.17376,-1.6411 -1.14037,-1.45682 -0.60634,-2.84984 0.51527,-1.34414 1.41744,-2.76079 1.75402,-2.76079 0.10812,0 0.17312,0.65652 0.17312,1.44718 0,1.4134 0.45699,2.53814 1.01776,2.53815 0.24541,0 0.20654,-0.46703 -0.17313,-2.04833 -0.12545,-0.52205 0.058,-1.05703 0.80117,-2.38229 1.21824,-2.17258 2.35332,-5.04984 2.72844,-6.92424 0.16036,-0.80173 0.3859,-1.65139 0.49804,-1.87021 0.11481,-0.22421 0.0865,-1.10798 -0.065,-2.04833 l -0.26,-1.66983 0.99609,-2.04833 c 0.94933,-1.92355 4.12341,-9.21386 4.24419,-9.75182 0.0306,-0.13686 0.1865,-0.50258 0.34647,-0.80152 0.16007,-0.29891 0.28156,-0.66528 0.28156,-0.82378 0,-0.15847 0.23359,-0.56726 0.49805,-0.91284 0.26426,-0.3456 0.41906,-0.72527 0.34644,-0.84605 -0.0726,-0.12076 -0.0414,-0.20038 0.0866,-0.20038 0.12788,10e-6 0.3493,-0.38511 0.49804,-0.82378 0.14884,-0.4387 0.46521,-1.07668 0.69293,-1.42493 0.2278,-0.3482 0.54162,-0.96982 0.69295,-1.38039 0.30562,-0.82917 2.10494,-5.42077 2.7284,-6.96877 0.21991,-0.54629 0.83568,-1.94192 1.38584,-3.11702 0.55014,-1.17511 1.07874,-2.61002 1.16934,-3.16155 0.27429,-1.66885 0.36191,-8.04647 0.13,-9.50691 -0.11967,-0.75272 -0.26789,-2.34234 -0.34647,-3.49551 -0.0784,-1.15317 -0.19683,-2.14792 -0.23812,-2.22645 -0.28887,-0.54933 0.38723,-3.63052 1.19099,-5.43252 l 0.93111,-2.04832 -0.36813,-2.3155 c -0.19835,-1.26089 -0.33123,-2.7906 -0.30313,-3.40646 0.0562,-1.23262 0.5993,-3.34635 1.14765,-4.40836 0.52419,-1.01516 0.98001,-4.59962 0.75789,-5.98913 -0.10418,-0.65245 -0.21475,-1.67738 -0.23813,-2.29324 -0.0243,-0.61586 -0.2673,-1.95702 -0.56301,-2.98343 -0.84042,-2.91765 -1.22998,-4.53416 -1.23428,-5.20988 -0.006,-1.03723 -1.429,-3.81939 -2.36028,-4.60873 -1.0271,-0.87054 -2.72844,-3.49755 -2.72844,-4.20798 4e-5,-0.55496 -0.66194,-1.40267 -1.08268,-1.40266 -0.60049,1e-5 -2.01649,-1.28346 -2.90165,-2.60494 -1.04551,-1.56084 -1.25591,-2.49457 -1.49413,-6.85744 -0.15551,-2.84574 0.23692,-6.41734 0.82286,-7.48085 0.19167,-0.34779 0.92337,-0.93642 1.62404,-1.3136 0.7007,-0.37718 1.35848,-0.92309 1.49413,-1.22454 0.58661,-1.30359 0.80123,-1.97923 0.80119,-2.6272 0,-0.38017 0.27885,-1.52197 0.62799,-2.53815 0.34359,-1.00012 0.52724,-1.59842 0.6063,-2.71626 l 0.62798,0.0445 c -0.006,-0.0495 -0.0121,-0.0859 -0.0213,-0.13359 -0.3472,-1.89444 -0.33049,-1.85862 -0.0866,-3.29513 0.12818,-0.75582 0.24603,-1.39611 0.2597,-1.42493 0.0467,-0.0969 0.49543,-3.21371 0.60632,-4.18571 0.10722,-0.94094 0.0304,-1.95008 -0.21657,-2.78305 -0.0635,-0.21562 -0.13365,-0.61082 -0.17313,-0.84605 -0.0398,-0.23523 -0.17707,-0.50304 -0.28156,-0.60114 -0.26456,-0.24822 -0.69298,-1.06801 -0.6713,-1.26907 0.0183,-0.1617 -0.84704,-1.33828 -0.99608,-1.35813 -0.0407,-0.006 -0.29068,-0.28029 -0.56298,-0.62341 -0.27245,-0.34314 -0.5481,-0.6379 -0.60633,-0.64567 -0.0583,-0.008 -0.15125,-0.11922 -0.17313,-0.2449 -0.0212,-0.12568 -0.0951,-0.2316 -0.19501,-0.24491 -0.0996,-0.0133 -0.34444,-0.17656 -0.54133,-0.35623 -0.22598,-0.20623 -0.50171,-0.34393 -0.75789,-0.3785 -0.22324,-0.0301 -0.5357,-0.15427 -0.69294,-0.26717 -0.15734,-0.11291 -0.58354,-0.30174 -0.93112,-0.44529 -0.3476,-0.14356 -0.86578,-0.42709 -1.16931,-0.6234 -0.37132,-0.24015 -0.87763,-0.45081 -1.51579,-0.60114 -0.5217,-0.12287 -1.59511,-0.40809 -2.40361,-0.62341 -0.85473,-0.22763 -2.1776,-0.45301 -3.13982,-0.57887 -1.02081,-0.13353 -1.7134,-0.20175 -2.42527,-0.11133 -0.71187,0.0904 -1.44022,0.31047 -2.59849,0.71247 -0.88162,0.30601 -1.67326,0.56739 -1.75399,0.55661 -0.0807,-0.0108 -0.42693,0.0947 -0.80117,0.22264 -0.37424,0.12793 -0.81922,0.2418 -0.97446,0.28944 -0.3284,0.10082 -0.65454,0.28523 -1.47247,0.75699 -0.58361,0.33659 -1.61502,1.29295 -1.64569,1.53625 -0.009,0.0688 -0.0945,0.22897 -0.19501,0.37849 -0.36687,0.5467 -0.76271,1.26886 -0.77955,1.40266 -0.009,0.0755 -0.23693,0.47717 -0.49804,0.89058 -0.26122,0.41337 -0.4879,0.83222 -0.49805,0.91284 -0.009,0.0806 -0.13274,0.34251 -0.28157,0.60114 -0.14882,0.25863 -0.32266,0.68042 -0.38978,0.9351 -0.1704,0.64655 -0.90895,2.30776 -1.01775,2.29324 -0.0495,-0.006 -0.12484,0.16643 -0.15155,0.3785 -0.0532,0.42192 -0.23661,0.69192 -0.67127,1.04642 -0.20139,0.16435 -0.23844,0.29941 -0.21657,0.48982 0.0183,0.15478 -0.0152,0.29719 -0.0865,0.3117 -0.0689,0.0138 -0.19197,0.27393 -0.26001,0.57888 -0.10175,0.45724 -0.11906,0.66488 0.065,1.22454 0.3332,1.01308 0.92021,1.781 1.51579,2.02606 0.13213,0.53353 0.25696,1.29087 0.30313,2.36003 0.0152,0.33143 0.0152,0.69609 0.0212,1.09096 0.0311,1.6632 0.1704,3.22102 0.32481,3.51778 0.45686,0.87773 0.35258,3.06863 -0.19501,3.91854 -0.86083,1.33652 -0.67239,3.11877 0.69296,6.21177 0.30221,0.68428 0.8172,2.04771 1.12599,3.0057 0.94561,2.93395 1.47866,4.00129 2.38196,4.74233 0.48257,0.39591 0.86915,0.94748 0.86614,1.22454 -0.009,0.75244 -0.82286,2.39327 -1.47247,2.98343 -1.19844,1.08882 -5.02853,3.06455 -7.70882,3.94081 -1.53067,0.50041 -3.51974,1.35234 -4.41745,1.89247 -1.7157,1.03228 -4.6946,2.25571 -6.43123,2.67173 l -1.01775,0.24491 0,-0.73472 c 0,-0.40572 -0.26547,-1.68882 -0.60633,-2.87211 -0.3407,-1.18332 -0.75014,-2.56435 -0.88779,-3.05023 -0.30071,-1.06117 -0.16129,-3.20772 0.38975,-6.56801 0.22751,-1.3876 0.3384,-2.98242 0.26,-3.60683 -0.10082,-0.80208 0.002,-1.55779 0.36813,-2.62721 0.28128,-0.82114 0.74016,-2.1446 0.99609,-2.9389 0.25605,-0.7943 0.77664,-1.94127 1.19097,-2.56041 0.53737,-0.80305 0.73682,-1.31212 0.64961,-1.78116 -0.0857,-0.46066 0.0474,-0.88246 0.45475,-1.38039 0.70845,-0.86566 0.73284,-1.53688 0.0865,-1.89248 -0.6089,-0.33506 -0.6089,-0.65124 0,-1.44718 0.63315,-0.8276 0.61378,-1.20245 -0.10812,-1.84795 -0.50955,-0.45554 -0.57231,-0.67656 -0.45473,-1.55851 0.16675,-1.2513 -0.16007,-1.6152 -1.51579,-1.66983 l -0.9528,-0.0222 -0.0434,-1.66983 c -0.0121,-0.90245 -0.0243,-1.75564 -0.065,-1.89248 -0.0395,-0.13684 -0.009,-1.73702 0.0865,-3.58457 0.0944,-1.84756 0.22628,-5.65493 0.28157,-8.46049 0.11085,-5.63959 0.44114,-8.13654 1.40753,-10.21937 0.71612,-1.54351 0.7626,-1.79966 0.3681,-2.44909 -0.22051,-0.36332 -0.20807,-0.58212 0.10843,-1.04642 0.57896,-0.84994 0.57813,-7.45731 0,-8.86125 -0.30869,-0.74975 -0.39127,-1.7711 -0.38976,-4.67553 8.7e-4,-2.05283 -0.0929,-3.93966 -0.21656,-4.18571 -0.12364,-0.24604 -0.47059,-0.54713 -0.77955,-0.66793 -0.15066,-0.0589 -0.41263,-0.0714 -0.7579,-0.0668 -0.19409,0.003 -0.43212,0.0248 -0.67126,0.0445 l 1.36163,-365.1717886 -2.75006,0 -3.8e-4,-1.069e-4 0,-3.56e-5 -0.002,0 z M 398.07319,437.73277 c 0.15794,0.01 0.40242,0.21213 0.75789,0.60114 0.59444,0.65062 0.47872,0.7553 -0.4331,0.37849 -0.29948,-0.12377 -0.54133,-0.39143 -0.54136,-0.60114 0,-0.20611 0.0614,-0.32713 0.15156,-0.35623 0.0183,-0.006 0.0422,-0.0236 0.065,-0.0222 l 5e-5,-3e-5 -5e-5,0 z m -35.88077,18.36815 c 0.0664,-0.004 0.10812,-0.009 0.10812,0.0222 0,0.77223 -0.93092,2.76279 -1.71066,3.67363 -1.50029,1.75243 -2.79905,4.25378 -3.50796,6.76838 -0.36652,1.30012 -0.88196,3.02031 -1.14767,3.80722 -0.26579,0.7869 -0.51429,1.42493 -0.56299,1.42493 -0.20289,10e-6 -0.0774,-1.1126 0.28157,-2.3823 0.30283,-1.07118 0.32758,-1.6166 0.12999,-2.53814 -0.13791,-0.64264 -0.2272,-1.72027 -0.21656,-2.40456 0.0243,-1.6355 -0.21657,-5.2281 -0.3898,-5.78875 -0.11694,-0.37915 0.18042,-0.51602 2.16544,-1.0019 1.27341,-0.31172 2.91562,-0.85159 3.63785,-1.18002 0.54176,-0.24632 1.01258,-0.39097 1.21266,-0.40076 l 0,4e-5 z m 12.81919,52.58858 0.28156,0.55661 c 0.15065,0.29794 0.23936,0.58694 0.21657,0.66793 -0.0601,0.21384 0.006,0.61726 0.19499,1.22455 0.30399,0.98068 0.33332,1.23585 0.13,2.09285 -0.10388,0.43715 -0.21019,0.80312 -0.21657,0.80152 -0.0896,-0.0222 -0.41651,-0.50348 -0.56298,-0.82378 -0.10387,-0.22714 -0.25543,-0.45945 -0.34647,-0.51208 -0.0911,-0.0527 -0.2023,-0.12218 -0.21656,-0.15586 -0.0917,-0.21561 -0.47063,-0.56645 -0.73625,-0.66793 -0.16978,-0.0648 -0.32311,-0.14402 -0.45472,-0.26717 0.12119,-0.20777 0.23206,-0.43208 0.38976,-0.66793 0.45078,-0.67363 0.68806,-1.30462 0.73623,-2.0038 0.0722,-0.0324 0.16827,-0.0951 0.21658,-0.11133 l 0.36813,-0.13358 -2.8e-4,0 z m -2.77173,4.89817 c 0.13184,0.10728 0.26365,0.20782 0.32482,0.28944 0.0854,0.11413 0.21446,0.22752 0.30313,0.24491 0.089,0.0174 0.22174,0.17561 0.30314,0.33397 0.0818,0.15835 0.25424,0.36386 0.36814,0.46755 0.16705,0.15221 0.17708,0.1787 0.0434,0.15585 -0.25878,-0.0442 -0.84095,0.21836 -1.29923,0.57887 -0.30223,0.23774 -0.71918,0.6782 -1.06106,1.11323 0.18862,-0.5789 0.37325,-1.16981 0.54136,-1.78116 0.14277,-0.51973 0.32667,-1.01224 0.47638,-1.40266 l -8e-5,0 z m -3.63788,10.50881 c 0.35558,0.17765 0.69137,0.32174 0.99608,0.42303 l -0.99608,-0.42303 z m -5.5651,3.6291 c -0.0932,0.12246 -0.20988,0.25746 -0.36811,0.42303 -0.56989,0.5959 -1.04367,0.73353 -1.75397,0.55661 -0.10479,-0.0261 -0.1707,-0.0312 -0.25999,-0.0445 0.81496,-0.22373 1.5812,-0.52647 2.38192,-0.93511 l 1.5e-4,0 z m -3.18314,1.11323 c -0.0532,0.0666 -0.11784,0.14645 -0.15155,0.2449 -0.11755,0.34351 -0.40423,0.62381 -0.64964,0.62341 -0.20169,-3.4e-4 -0.28551,-0.20528 -0.30314,-0.66793 0.38126,-0.05 0.75103,-0.12731 1.10437,-0.20038 l -3e-5,0 z m 1.32091,1.3136 c 0.19803,-0.0398 0.47147,0.12704 0.97443,0.44529 0.73612,0.46576 0.72633,0.49152 -0.45473,0.73472 -0.67649,0.13932 -1.26577,0.28315 -1.3209,0.3117 -0.0553,0.0285 0.0741,-0.29994 0.28156,-0.73472 0.22143,-0.46391 0.32163,-0.71718 0.51969,-0.75699 l -5e-5,0 z m -7.64389,6.16724 c 0.0553,-0.0162 0.14277,10e-4 0.19501,0 0.78109,-0.0198 1.1824,1.63344 1.45081,5.83328 0.12514,1.95833 0.30972,3.98544 0.41144,4.47515 0.1467,0.70617 0.0407,0.89155 -0.54135,0.89058 -0.48994,-7.1e-4 -0.82627,0.31975 -0.97442,0.97964 -0.27155,1.20891 -0.4117,1.2111 -1.25595,0.11132 -1.169,-1.52283 -1.23969,-3.00796 -0.32481,-6.83518 0.20806,-0.86995 0.38359,-2.42067 0.38978,-3.42872 0.009,-1.44499 0.1376,-1.87625 0.64961,-2.02607 l -1.2e-4,0 z m -9.87425,15.18434 c 0.14033,2.1e-4 0.23692,0.38227 0.23813,0.84605 0.002,0.46376 0.0689,1.18129 0.15157,1.60304 0.10813,0.55279 0.0744,0.64357 -0.10842,0.3117 -0.13943,-0.25319 -0.2834,-0.97047 -0.36815,-1.60304 -0.0853,-0.63586 -0.0543,-1.15797 0.0865,-1.15775 l 3.3e-4,0 z m 4.69895,1.3804 c 0.0304,-0.004 0.0899,0.0722 0.17312,0.22264 0.15856,0.28579 0.33055,2.29296 0.38977,4.45289 l 0.10843,3.91854 -0.23813,-3.42872 c -0.1218,-1.87935 -0.29371,-3.84195 -0.38979,-4.40836 -0.0841,-0.49686 -0.0933,-0.75098 -0.0432,-0.75699 l -2.6e-4,0 z m -1.62407,10.2639 c 0.0708,0.0358 0.1306,0.0857 0.195,0.11132 l 0.0212,0.82379 c 0.13243,3.20383 0.13395,3.93244 0.0212,5.2544 -0.12362,1.4557 -0.0713,2.21824 0.23813,3.49552 0.14489,0.59779 0.2272,1.17855 0.21657,1.73662 -0.009,0.46375 -0.0212,1.05958 -0.0212,1.3136 -4e-4,0.25402 -0.099,1.06658 -0.21657,1.80342 -0.11755,0.73685 -0.33895,1.75654 -0.47638,2.24871 l -0.23814,0.89058 0.10814,-1.31361 c 0.0483,-0.71896 0.0401,-1.53544 0.0212,-1.82568 -0.0183,-0.29023 -0.0152,-0.79543 -0.0212,-1.13548 -0.0152,-0.6481 -0.0432,-0.88061 0,-2.71627 0.0305,-1.23466 0.0272,-1.64075 0,-2.29323 -0.009,-0.23634 0.003,-0.65158 0,-0.91284 -0.003,-0.26128 -0.0387,-0.52131 -0.065,-0.57888 -0.18921,-0.41313 -0.21656,-3.52639 -0.0434,-4.40835 0.0467,-0.23835 0.0829,-0.65916 0.0865,-0.91285 0.003,-0.25371 0.0662,-0.93285 0.15155,-1.51398 l 0.0212,-0.0668 3e-5,-3e-5 0.002,0 z m -121.4576,88.74601 -3e-5,0 3e-5,0 z"
     style="fill:url(#radialGradient3550);fill-opacity:1" />
</svg>
